<svg width="24" height="24" viewBox="0 0 24 24" fill="none" xmlns="http://www.w3.org/2000/svg">
<path d="M3 0H21C22.6569 0 24 1.34315 24 3V21C24 22.6569 22.6569 24 21 24H3C1.34315 24 0 22.6569 0 21V3C0 1.34315 1.34315 0 3 0Z" fill="#019EDB"/>
<path d="M2.33179 15.4301V8.57007H3.67979L6.48679 13.1511V8.57007H7.77379V15.4301H6.38379L3.61879 10.9571V15.4301H2.33179Z" fill="white"/>
<path d="M9.21979 15.4301V8.57007H11.2928L12.5378 13.2491L13.7678 8.57007H15.8458V15.4301H14.5588V10.0301L13.1968 15.4301H11.8638L10.5068 10.0301V15.4301H9.21979Z" fill="white"/>
<path d="M18.7658 15.4301V9.73107H16.7298V8.57007H22.1808V9.73107H20.1508V15.4301H18.7658Z" fill="white"/>
</svg>