<svg width="52" height="52" viewBox="0 0 52 52" fill="none" xmlns="http://www.w3.org/2000/svg">
<path d="M26 17.3333C28.2986 17.3333 30.503 18.2464 32.1283 19.8717C33.7536 21.4971 34.6667 23.7015 34.6667 26C34.6667 28.2985 33.7536 30.503 32.1283 32.1283C30.503 33.7536 28.2986 34.6667 26 34.6667C23.7015 34.6667 21.4971 33.7536 19.8718 32.1283C18.2464 30.503 17.3334 28.2985 17.3334 26C17.3334 23.7015 18.2464 21.4971 19.8718 19.8717C21.4971 18.2464 23.7015 17.3333 26 17.3333ZM26 21.6667C24.8507 21.6667 23.7485 22.1232 22.9359 22.9359C22.1232 23.7485 21.6667 24.8507 21.6667 26C21.6667 27.1493 22.1232 28.2515 22.9359 29.0641C23.7485 29.8768 24.8507 30.3333 26 30.3333C27.1493 30.3333 28.2515 29.8768 29.0641 29.0641C29.8768 28.2515 30.3334 27.1493 30.3334 26C30.3334 24.8507 29.8768 23.7485 29.0641 22.9359C28.2515 22.1232 27.1493 21.6667 26 21.6667ZM21.6667 47.6667C21.125 47.6667 20.67 47.2767 20.5834 46.7567L19.7817 41.015C18.4167 40.4733 17.2467 39.7367 16.12 38.87L10.725 41.0583C10.2484 41.2317 9.66335 41.0583 9.40335 40.5817L5.07002 33.085C4.78835 32.6083 4.91835 32.0233 5.33002 31.6983L9.90169 28.1017L9.75002 26L9.90169 23.8333L5.33002 20.3017C4.91835 19.9767 4.78835 19.3917 5.07002 18.915L9.40335 11.4183C9.66335 10.9417 10.2484 10.7467 10.725 10.9417L16.12 13.1083C17.2467 12.2633 18.4167 11.5267 19.7817 10.985L20.5834 5.24334C20.67 4.72334 21.125 4.33334 21.6667 4.33334H30.3334C30.875 4.33334 31.33 4.72334 31.4167 5.24334L32.2184 10.985C33.5834 11.5267 34.7534 12.2633 35.88 13.1083L41.275 10.9417C41.7517 10.7467 42.3367 10.9417 42.5967 11.4183L46.93 18.915C47.2117 19.3917 47.0817 19.9767 46.67 20.3017L42.0984 23.8333L42.25 26L42.0984 28.1667L46.67 31.6983C47.0817 32.0233 47.2117 32.6083 46.93 33.085L42.5967 40.5817C42.3367 41.0583 41.7517 41.2533 41.275 41.0583L35.88 38.8917C34.7534 39.7367 33.5834 40.4733 32.2184 41.015L31.4167 46.7567C31.33 47.2767 30.875 47.6667 30.3334 47.6667H21.6667ZM24.375 8.66667L23.5734 14.3217C20.9734 14.8633 18.6767 16.25 17.0084 18.1783L11.7867 15.925L10.1617 18.7417L14.7334 22.1C13.8667 24.635 13.8667 27.3867 14.7334 29.9L10.14 33.28L11.765 36.0967L17.03 33.8433C18.6984 35.75 20.9734 37.1367 23.5517 37.6567L24.3534 43.3333H27.6467L28.4484 37.6783C31.0267 37.1367 33.3017 35.75 34.97 33.8433L40.235 36.0967L41.86 33.28L37.2667 29.9217C38.1334 27.3867 38.1334 24.635 37.2667 22.1L41.8384 18.7417L40.2134 15.925L34.9917 18.1783C33.3234 16.25 31.0267 14.8633 28.4267 14.3433L27.625 8.66667H24.375Z" fill="#202124"/>
</svg>
