<svg xmlns="http://www.w3.org/2000/svg" xmlns:xlink="http://www.w3.org/1999/xlink" width="40" zoomAndPan="magnify" viewBox="0 0 30 30.000001" height="40" preserveAspectRatio="xMidYMid meet" version="1.0"><defs><clipPath id="53d76c5a3d"><path d="M 0.484375 0 L 29.515625 0 L 29.515625 29.03125 L 0.484375 29.03125 Z M 0.484375 0 " clip-rule="nonzero"/></clipPath><clipPath id="ad6f065d62"><path d="M 9 2.902344 L 21 2.902344 L 21 21 L 9 21 Z M 9 2.902344 " clip-rule="nonzero"/></clipPath><clipPath id="249ffcc1ca"><path d="M 3.386719 17 L 26.613281 17 L 26.613281 26.128906 L 3.386719 26.128906 Z M 3.386719 17 " clip-rule="nonzero"/></clipPath></defs><g clip-path="url(#53d76c5a3d)"><path fill="#ffffff" d="M 0.484375 0 L 29.515625 0 L 29.515625 29.03125 L 0.484375 29.03125 Z M 0.484375 0 " fill-opacity="1" fill-rule="nonzero"/><path fill="#029edb" d="M 0.484375 0 L 29.515625 0 L 29.515625 29.03125 L 0.484375 29.03125 Z M 0.484375 0 " fill-opacity="1" fill-rule="nonzero"/></g><g clip-path="url(#ad6f065d62)"><path fill="#ffffff" d="M 16.023438 17.3125 L 16.023438 3.925781 C 16.023438 3.65625 15.917969 3.394531 15.722656 3.203125 C 15.53125 3.015625 15.269531 2.902344 15 2.902344 C 14.730469 2.902344 14.46875 3.015625 14.277344 3.203125 C 14.082031 3.394531 13.976562 3.65625 13.976562 3.925781 L 13.976562 17.3125 C 13.976562 17.3125 12.023438 15.363281 10.933594 14.273438 C 10.742188 14.078125 10.480469 13.972656 10.210938 13.972656 C 9.941406 13.972656 9.679688 14.078125 9.488281 14.273438 C 9.089844 14.671875 9.089844 15.316406 9.488281 15.714844 L 14.3125 20.542969 C 14.496094 20.726562 14.738281 20.824219 15 20.824219 C 15.261719 20.824219 15.503906 20.726562 15.6875 20.542969 L 20.511719 15.714844 C 20.910156 15.316406 20.910156 14.671875 20.511719 14.273438 C 20.320312 14.078125 20.058594 13.972656 19.789062 13.972656 C 19.519531 13.972656 19.257812 14.078125 19.066406 14.273438 C 17.96875 15.363281 16.023438 17.3125 16.023438 17.3125 Z M 16.023438 17.3125 " fill-opacity="1" fill-rule="evenodd"/></g><g clip-path="url(#249ffcc1ca)"><path fill="#ffffff" d="M 3.386719 24.195312 C 3.386719 24.707031 3.589844 25.199219 3.957031 25.558594 C 4.320312 25.925781 4.8125 26.128906 5.324219 26.128906 L 24.675781 26.128906 C 25.191406 26.128906 25.683594 25.925781 26.042969 25.558594 C 26.410156 25.195312 26.613281 24.703125 26.613281 24.195312 L 26.613281 18.335938 C 26.613281 17.773438 26.152344 17.3125 25.589844 17.3125 C 25.320312 17.3125 25.058594 17.425781 24.867188 17.613281 C 24.671875 17.804688 24.566406 18.066406 24.566406 18.335938 L 24.566406 23.121094 C 24.566406 23.65625 24.136719 24.089844 23.597656 24.089844 L 6.402344 24.089844 C 5.863281 24.089844 5.433594 23.65625 5.433594 23.121094 L 5.433594 18.335938 C 5.433594 18.066406 5.324219 17.804688 5.132812 17.613281 C 4.941406 17.417969 4.679688 17.3125 4.410156 17.3125 C 3.847656 17.3125 3.386719 17.773438 3.386719 18.335938 Z M 3.386719 24.195312 " fill-opacity="1" fill-rule="evenodd"/></g></svg>