<svg width="24" height="24" viewBox="0 0 30 30" fill="none" xmlns="http://www.w3.org/2000/svg">
<path d="M4 0H26C28.2091 0 30 1.79086 30 4V26C30 28.2091 28.2091 30 26 30H4C1.79086 30 0 28.2091 0 26V4C0 1.79086 1.79086 0 4 0Z" fill="#019EDB"/>

<path fill-rule="evenodd" clip-rule="evenodd" d="M16.0234 17.3125V3.92578C16.0234 3.65625 15.918 3.39453 15.7227 3.20312C15.5312 3.01562 15.2695 2.90234 15 2.90234C14.7305 2.90234 14.4688 3.01562 14.2773 3.20312C14.082 3.39453 13.9766 3.65625 13.9766 3.92578V17.3125C13.9766 17.3125 12.0234 15.3633 10.9336 14.2734C10.7422 14.0781 10.4805 13.9727 10.2109 13.9727C9.94141 13.9727 9.67969 14.0781 9.48828 14.2734C9.08984 14.6719 9.08984 15.3164 9.48828 15.7148L14.3125 20.543C14.4961 20.7266 14.7383 20.8242 15 20.8242C15.2617 20.8242 15.5039 20.7266 15.6875 20.543L20.5117 15.7148C20.9102 15.3164 20.9102 14.6719 20.5117 14.2734C20.3203 14.0781 20.0586 13.9727 19.7891 13.9727C19.5195 13.9727 19.2578 14.0781 19.0664 14.2734C17.9688 15.3633 16.0234 17.3125 16.0234 17.3125Z" fill="white"/>

<path fill-rule="evenodd" clip-rule="evenodd" d="M3.38672 24.1953C3.38672 24.707 3.58984 25.1992 3.95703 25.5586C4.32031 25.9258 4.8125 26.1289 5.32422 26.1289H24.6758C25.1914 26.1289 25.6836 25.9258 26.043 25.5586C26.4102 25.1953 26.6133 24.7031 26.6133 24.1953V18.3359C26.6133 17.7734 26.1523 17.3125 25.5898 17.3125C25.3203 17.3125 25.0586 17.4258 24.8672 17.6133C24.6719 17.8047 24.5664 18.0664 24.5664 18.3359V23.1211C24.5664 23.6562 24.1367 24.0898 23.5977 24.0898H6.40234C5.86328 24.0898 5.43359 23.6562 5.43359 23.1211V18.3359C5.43359 18.0664 5.32422 17.8047 5.13281 17.6133C4.94141 17.418 4.67969 17.3125 4.41016 17.3125C3.84766 17.3125 3.38672 17.7734 3.38672 18.3359V24.1953Z" fill="white"/>
</svg>