<?xml version="1.0" encoding="UTF-8" standalone="no"?>
<svg
   xmlns:dc="http://purl.org/dc/elements/1.1/"
   xmlns:cc="http://creativecommons.org/ns#"
   xmlns:rdf="http://www.w3.org/1999/02/22-rdf-syntax-ns#"
   xmlns:svg="http://www.w3.org/2000/svg"
   xmlns="http://www.w3.org/2000/svg"
   xmlns:sodipodi="http://sodipodi.sourceforge.net/DTD/sodipodi-0.dtd"
   xmlns:inkscape="http://www.inkscape.org/namespaces/inkscape"
   width="100%"
   height="100%"
   viewBox="0 0 24 24"
   version="1.1"
   xml:space="preserve"
   style="fill-rule:evenodd;clip-rule:evenodd;stroke-linejoin:round;stroke-miterlimit:1.41421;"
   id="svg7"
   sodipodi:docname="ikona_narzedzie_PRG.svg"
   inkscape:version="0.92.3 (2405546, 2018-03-11)"><metadata
   id="metadata13"><rdf:RDF><cc:Work
       rdf:about=""><dc:format>image/svg+xml</dc:format><dc:type
         rdf:resource="http://purl.org/dc/dcmitype/StillImage" /><dc:title></dc:title></cc:Work></rdf:RDF></metadata><defs
   id="defs11" /><sodipodi:namedview
   pagecolor="#ffffff"
   bordercolor="#666666"
   borderopacity="1"
   objecttolerance="10"
   gridtolerance="10"
   guidetolerance="10"
   inkscape:pageopacity="0"
   inkscape:pageshadow="2"
   inkscape:window-width="1920"
   inkscape:window-height="1058"
   id="namedview9"
   showgrid="false"
   inkscape:zoom="9.8333333"
   inkscape:cx="12"
   inkscape:cy="12"
   inkscape:window-x="1358"
   inkscape:window-y="-8"
   inkscape:window-maximized="1"
   inkscape:current-layer="svg7" />
    <rect
   id="Layer1"
   x="0"
   y="0"
   width="24"
   height="24"
   style="fill:rgb(1,158,219);" />
    
<path
   inkscape:connector-curvature="0"
   style="font-weight:400;line-height:normal;font-family:sans-serif;text-indent:0;text-align:start;text-decoration:none;text-decoration-line:none;text-decoration-style:solid;text-decoration-color:#000000;text-transform:none;white-space:normal;overflow:visible;isolation:auto;mix-blend-mode:normal;fill:#ffffff;stroke-width:0.4091664"
   d="M 10.401505,2.8161536 C 10.122858,2.8065614 9.8574591,2.846175 9.6189611,2.890374 8.7974709,3.0421505 8.0442377,3.4374366 7.3769276,3.8193799 6.9131825,4.0849892 6.7092153,4.4335741 6.5008313,4.5353149 6.3093108,4.629133 6.002959,4.6316343 5.6211225,4.7029361 5.181067,4.785496 4.7928066,4.9435271 4.4298407,5.0677832 4.374031,5.0869673 4.2230631,5.1219903 4.0620575,5.1820327 3.9014532,5.2416586 3.6966831,5.3158797 3.5509347,5.5656434 a 0.4015104,0.41696845 0 0 0 -7.855e-4,8.21e-4 c -0.069459,0.1192534 -0.1164387,0.2827046 -0.091143,0.4428203 -0.00923,0.00294 -0.01847,-0.00835 -0.027306,-0.005 -0.199551,0.080478 -0.3035419,0.292715 -0.328837,0.4278126 a 0.91142863,0.94651836 0 0 0 -0.00122,0.3356597 c 0.026099,0.1922226 0.083514,0.3781906 0.086727,0.3915334 0.063038,0.2710298 0.09034,0.4140503 0.050188,0.624619 a 0.4015104,0.41696845 0 0 0 0,8.21e-4 C 3.2217016,7.875217 3.1401945,8.0407534 3.0394155,8.2434002 2.939038,8.4456277 2.8105547,8.6999789 2.8286225,9.0314685 c 0.017663,0.3285716 0.203566,0.5775012 0.3529275,0.7242742 0.1489603,0.1463556 0.2670045,0.2393402 0.3131786,0.3035523 -0.00122,0.0012 0.00156,-0.0074 -0.01285,0.02627 -0.044567,0.101741 -0.2019602,0.410716 -0.080705,0.748877 h -7.855e-4 c 0.060223,0.168038 0.1473546,0.24476 0.1858994,0.288542 0.00923,0.01084 0.00882,0.01125 0.013249,0.01667 -0.00601,-0.0033 -0.015656,0.120923 -0.042561,0.322734 a 0.4015104,0.41696845 0 0 0 0,8.21e-4 c -0.052596,0.401124 -0.1766646,0.949021 0.021284,1.509426 0.1581951,0.446156 0.418775,0.657975 0.4745849,0.812671 H 4.05206 c 0.028505,0.07923 0.026498,0.134265 -0.00565,0.246012 -0.032118,0.11133 -0.1035897,0.259354 -0.1778693,0.441153 a 1.7827061,1.8513399 0 0 0 -0.124468,0.42364 c -0.016862,0.09924 -0.061831,0.20765 0.044167,0.419471 0.053404,0.105491 0.1931269,0.225162 0.3280345,0.25018 0.1349071,0.02419 0.23127,-0.01001 0.3059505,-0.04336 0.1349078,-0.0613 0.1618092,-0.153444 0.2123994,-0.239758 0.059024,0.125925 0.1437406,0.31523 0.3440939,0.462003 0.2007553,0.146771 0.3991016,0.19639 0.5388276,0.238504 0.1397251,0.04171 0.2208301,0.07297 0.2838671,0.124674 0.1031882,0.08465 0.2890876,0.193057 0.4962676,0.230585 -0.047783,0.115081 -0.1031883,0.258518 -0.052196,0.440317 0.097167,0.350671 0.3288373,0.455746 0.3513218,0.480765 0.018871,0.02084 0.079901,0.261856 0.3697912,0.480347 0.2637917,0.198476 0.5821898,0.186384 0.8283158,0.06922 0.2103911,-0.10007 0.3782225,-0.321067 0.431222,-0.596265 0.1573922,0.0909 0.3196022,0.130512 0.4806079,0.154696 -0.030919,0.109246 -0.081909,0.213487 -0.057817,0.300218 a 0.4015104,0.41696845 0 0 0 0,4.17e-4 c 0.052196,0.185967 0.1116203,0.205981 0.1561876,0.249345 a 1.8834852,1.955999 0 0 0 0.3473063,0.254351 c 0.2107931,0.116751 0.4408583,0.104242 0.561311,0.0859 0.09355,-0.01418 0.1031886,-0.01333 0.1184467,-0.01292 0.049384,0.08048 0.06264,0.147188 0.1630124,0.200977 0.141734,0.07631 0.262588,0.09007 0.338874,0.102158 0.07668,0.01167 0.110016,0.02502 0.09194,0.01626 -0.03453,-0.01751 0.07869,0.133431 0.08914,0.195142 0.01969,0.112581 0.06102,0.400288 0.179876,0.689249 0.05903,0.14427 0.138121,0.29563 0.26821,0.429478 0.129689,0.134681 0.326829,0.247678 0.548063,0.260186 0.170641,0.01001 0.246126,-0.03543 0.331647,-0.07089 0.08553,-0.03543 0.165019,-0.07672 0.238496,-0.115501 0.06425,-0.03419 0.119249,-0.0638 0.163013,-0.08632 0.07268,0.01543 0.147757,0.04878 0.157795,0.06755 0.0032,0.0062 0.01001,0.08881 0.06264,0.276869 0.0261,0.09424 0.0791,0.22683 0.193529,0.333574 0.11443,0.107161 0.269013,0.161783 0.412753,0.175127 0.299125,0.02834 0.561713,-0.08005 0.74721,-0.200978 0.185499,-0.120922 0.317996,-0.248515 0.41717,-0.321068 0.053,-0.03836 0.06986,-0.04002 0.156188,-0.03086 0.08632,0.0096 0.222035,0.05171 0.395889,0.09298 0.287079,0.06797 0.557296,-0.01167 0.725528,-0.09465 0.167833,-0.08257 0.258975,-0.142603 0.36136,-0.167621 0.3188,-0.07715 0.59022,0.02918 0.936322,0.240173 0.346103,0.211403 0.718302,0.526213 1.185662,0.717602 0.04017,0.01626 0.232875,0.116751 0.448485,0.172626 0.108409,0.02793 0.229664,0.05504 0.391473,0.02043 0.161809,-0.0346 0.368186,-0.200144 0.429617,-0.398205 0.06945,-0.223496 0.0025,-0.385694 -0.05098,-0.504949 a 1.924841,1.9989467 0 0 0 -0.177873,-0.30772 c -0.106801,-0.159284 -0.200755,-0.346502 -0.208786,-0.331491 -0.05661,-0.278536 0.03092,-0.552899 0.226051,-0.873966 0.19955,-0.328571 0.497872,-0.663813 0.743598,-1.00406 0.293904,-0.407379 0.667309,-0.756798 0.963625,-1.043255 0.148157,-0.143437 0.275434,-0.265609 0.381834,-0.411964 0.05341,-0.07339 0.108008,-0.153029 0.138121,-0.286041 0.03012,-0.133013 -0.0069,-0.349419 -0.11443,-0.473259 a 0.4015104,0.41696845 0 0 0 -7.85e-4,0 c -0.183089,-0.208902 -0.251345,-0.346918 -0.266603,-0.395702 -0.0012,-0.0029 -7.85e-4,8.2e-4 -0.0016,-0.0017 0.0032,-8.2e-4 0.02007,-0.01501 0.08793,-0.116751 0.03774,-0.0567 0.09475,-0.155112 0.100781,-0.296046 a 0.5597055,0.581254 0 0 0 -0.12045,-0.367333 c -0.307959,-0.399455 -0.517948,-0.566243 -0.656471,-0.908991 -0.09636,-0.237672 -0.18349,-0.5062 -0.210793,-0.716352 -0.02288,-0.17346 0.03493,-0.428227 0.04537,-0.772226 0.0092,-0.306472 -0.05141,-0.733865 -0.381837,-1.009064 -0.150967,-0.125091 -0.288284,-0.172624 -0.367785,-0.21182 -0.08031,-0.03919 -0.09035,-0.05462 -0.08953,-0.05379 -0.0265,-0.04253 -0.02007,-0.03336 -0.01486,-0.05671 0.0048,-0.02376 0.03051,-0.08257 0.08793,-0.150943 0.114438,-0.136765 0.343299,-0.29146 0.48182,-0.35901 0.310367,-0.1509426 0.549267,-0.3969539 0.63238,-0.6859139 0.08311,-0.288542 0.04296,-0.5366384 0.01725,-0.8005788 C 20.422479,7.7155316 20.192012,6.8624145 20.004907,6.0459901 19.951506,5.8129043 19.900515,5.5527167 19.786085,5.2887755 19.672055,5.0244176 19.478929,4.7542217 19.180606,4.5778438 18.983465,4.4606756 18.805997,4.3831198 18.670285,4.2993093 18.3017,4.0716443 17.899387,4.0674751 17.532407,4.1754697 16.957042,4.3439249 16.337512,4.3118181 15.653337,4.2893018 15.015338,4.2684551 14.321529,4.0691423 13.552636,4.0587182 h -7.86e-4 c -0.06987,-8.209e-4 -0.217217,-0.010427 -0.372602,-0.00876 -0.155385,0.00163 -0.311572,-0.012508 -0.524373,0.1017401 -0.182285,0.097988 -0.27383,0.2314177 -0.325223,0.2906272 -0.05059,0.059626 -0.04498,0.052956 -0.06064,0.058373 -0.143741,0.044614 -0.52919,-0.010838 -0.741189,-0.1096632 -0.08793,-0.040448 -0.223237,-0.1601166 -0.308358,-0.2981328 -0.08472,-0.1375997 -0.11443,-0.2814539 -0.102787,-0.3585925 0.0048,-0.032109 0.04095,-0.019185 0.09035,-0.2643585 A 0.48181248,0.50036213 0 0 0 11.193777,3.2093508 0.49947894,0.51870874 0 0 0 11.017113,2.9658412 c -0.1329,-0.097153 -0.224847,-0.1042421 -0.333254,-0.1221717 a 2.2745563,2.3621262 0 0 0 -0.282261,-0.027517 z m -0.05943,0.8631247 A 1.3350221,1.3864201 0 0 0 10.54283,4.542403 c 0.162613,0.2643586 0.38264,0.4828492 0.656872,0.6104423 0.358949,0.1667871 0.827111,0.2935453 1.300493,0.1459389 a 0.4015104,0.41696845 0 0 0 7.85e-4,0 c 0.210391,-0.066713 0.352928,-0.2134882 0.42801,-0.3010514 0.06746,-0.077973 0.08192,-0.091733 0.08432,-0.094235 0.01526,0 0.09194,-0.019595 0.174656,-0.020429 0.113627,-0.00123 0.241708,0.00834 0.353329,0.0096 0.629969,0.00834 1.319765,0.2055655 2.087051,0.2305838 0.669318,0.022099 1.382,0.071719 2.122786,-0.145939 0.302739,-0.088814 0.272224,-0.107578 0.508713,0.038362 0.19915,0.1230057 0.381034,0.2022301 0.522365,0.2860408 0.136113,0.080474 0.20477,0.1738759 0.271423,0.3281536 0.06665,0.1542783 0.114829,0.3665158 0.17024,0.6091908 0.191921,0.8372734 0.409539,1.6570338 0.487835,2.4555279 0.02569,0.263941 0.02649,0.4253077 0.01164,0.4770118 -0.01485,0.051703 -0.01164,0.075054 -0.203968,0.1684553 a 0.4015104,0.41696845 0 0 0 0,8.21e-4 C 19.29413,9.450535 19.006248,9.6294143 18.772568,9.9079486 18.656131,10.047217 18.549731,10.216505 18.505563,10.431662 a 0.89938335,0.93400933 0 0 0 0.12447,0.68216 0.4015104,0.41696845 0 0 0 0,8.21e-4 c 0.124467,0.20098 0.302335,0.297716 0.421585,0.356091 0.118446,0.05838 0.190718,0.09382 0.208785,0.109247 0.08432,0.06922 0.08833,0.112164 0.08192,0.331071 -0.0064,0.215992 -0.08994,0.522047 -0.03934,0.909826 a 0.4015104,0.41696845 0 0 0 0,8.21e-4 c 0.04417,0.337746 0.157391,0.656308 0.267407,0.927756 0.17827,0.439068 0.423592,0.667566 0.647636,0.93234 -0.02207,0.03336 -0.0237,0.02209 -0.04696,0.06922 -0.07628,0.155945 -0.104794,0.403626 -0.03453,0.626286 0.04778,0.15011 0.178271,0.309806 0.293104,0.468256 -0.0522,0.06005 -0.108408,0.124674 -0.215211,0.228082 -0.285072,0.276031 -0.702642,0.660059 -1.058783,1.153334 -0.20477,0.283538 -0.524373,0.637127 -0.780135,1.058684 -0.256165,0.421137 -0.459326,0.951937 -0.326429,1.531523 0.03974,0.173042 0.112023,0.2285 0.177067,0.321899 -0.292299,-0.13468 -0.618727,-0.383611 -1.007791,-0.621281 -0.413154,-0.252684 -0.934714,-0.476595 -1.526542,-0.333576 -0.253352,0.06171 -0.422789,0.177628 -0.523167,0.226832 -0.100375,0.04921 -0.106,0.05796 -0.203165,0.03502 -0.125674,-0.03002 -0.285876,-0.08756 -0.490646,-0.110079 -0.20477,-0.02209 -0.47338,0.01292 -0.699432,0.177628 -0.163013,0.118418 -0.283867,0.233085 -0.383843,0.298133 -0.07509,0.04878 -0.12728,0.05254 -0.187104,0.05753 -0.0092,-0.07548 -0.0069,-0.164704 -0.09797,-0.337746 -0.192725,-0.364846 -0.555289,-0.51412 -0.89577,-0.515372 h -7.87e-4 c -0.125671,-4.17e-4 -0.15458,0.02501 -0.192724,0.04044 a 1.2808181,1.3301293 0 0 0 -0.102787,0.04753 c -0.06544,0.03293 -0.132499,0.07006 -0.197542,0.104657 a 2.3440178,2.4342618 0 0 1 -0.171847,0.08422 l -0.0057,0.0017 c -0.0025,-0.0025 0,0.0022 -0.0092,-0.0074 a 0.56372061,0.5854237 0 0 1 -0.09639,-0.165987 c -0.06666,-0.162199 -0.105596,-0.37944 -0.128082,-0.509118 -0.04858,-0.281036 -0.154581,-0.60794 -0.525977,-0.797243 -0.141735,-0.07214 -0.254559,-0.08006 -0.325626,-0.09132 -0.03533,-0.0055 -0.03011,-0.0055 -0.04456,-0.0091 -0.01848,-0.03878 -0.0237,-0.06797 -0.06584,-0.115499 A 0.58821274,0.61085877 0 0 0 10.069907,17.43465 H 10.06912 C 9.8523046,17.37627 9.6764436,17.4209 9.5977467,17.43295 c -0.062236,0.0091 -0.04898,0.0068 -0.053409,0.0025 0.026098,-0.04838 0.060628,-0.08548 0.077898,-0.151777 0.036138,-0.1376 -0.00688,-0.388198 -0.1324984,-0.511204 -0.125736,-0.123046 -0.2345456,-0.138891 -0.3212718,-0.154737 a 1.8437357,1.9147191 0 0 0 -0.2441181,-0.02376 0.4015104,0.41696845 0 0 0 -7.855e-4,0 C 8.7460897,16.585556 8.6946958,16.573953 8.578258,16.491394 v 8.21e-4 c 0.010442,0.007 -0.040154,-0.04171 -0.11443,-0.111747 -0.074281,-0.06964 -0.1891113,-0.179296 -0.3930792,-0.208485 -0.1485588,-0.02084 -0.338473,-0.02335 -0.5038955,0.130513 -0.1658237,0.153861 -0.1754601,0.366514 -0.1654225,0.47868 0.01003,0.11258 0.033326,0.187635 0.047783,0.243508 0.00686,0.02751 0.00565,0.01543 0.00802,0.02793 -0.01847,0.0055 -0.032527,0.0022 -0.019271,0.01208 C 7.4648687,17.084714 7.3893819,16.91751 7.1818,16.688594 7.0705831,16.565619 7.0677726,16.573123 7.0593404,16.583548 l 0.064245,-0.102992 c 0.050188,-0.08006 0.136915,-0.181381 0.1357109,-0.406961 A 0.55087226,0.5720807 0 0 0 7.135236,15.730895 0.61752299,0.64129747 0 0 0 6.891519,15.553266 c -0.1662251,-0.0713 -0.3071553,-0.05003 -0.3874574,-0.03836 -0.0795,0.01167 -0.1144309,0.01292 -0.08793,0.01543 -0.06786,-0.0062 0.00278,0.02084 -0.1164377,-0.07715 h -0.00122 C 6.0989283,15.289326 5.8897417,15.22678 5.7403793,15.182166 5.5906163,15.137136 5.5002764,15.106276 5.4408525,15.062912 5.4304105,15.055412 5.3998985,15.016632 5.3456945,14.901545 5.2914925,14.786879 5.2196202,14.598827 5.0297062,14.43746 4.9682752,14.38535 4.8602683,14.39534 4.7811711,14.35782 c 0.011641,-0.03336 0.024091,-0.05171 0.034533,-0.08756 0.062637,-0.215989 0.088733,-0.498276 -0.012042,-0.777644 C 4.6438609,13.049375 4.3864929,12.83964 4.3318873,12.684945 4.2411456,12.428093 4.2957544,12.011958 4.3531717,11.576644 l -7.858e-4,8.2e-4 c 0.014049,-0.107578 0.1148316,-0.351922 0.01967,-0.689249 -0.049789,-0.17471 -0.1441421,-0.27228 -0.1915203,-0.326486 -0.013648,-0.01543 -0.015655,-0.0196 -0.022084,-0.02834 -0.00156,0.0037 -0.00964,0.04253 0.054204,-0.103408 0.035332,-0.08049 0.087127,-0.203908 0.090339,-0.369028 C 4.3057786,9.8958254 4.2447762,9.7106913 4.1403811,9.564335 3.9894132,9.3516816 3.8235894,9.2382661 3.7336516,9.1494515 3.6437131,9.0614715 3.6340767,9.0468775 3.6308648,8.9851663 V 8.9843452 C 3.6280841,8.9280513 3.6653901,8.8025468 3.753325,8.6257522 3.8408541,8.449375 3.9709439,8.2371375 4.0263524,7.9460941 4.078548,7.6692268 4.0247883,7.4478165 3.9837907,7.2218198 c 0.010842,0.00253 0.01285,0.014176 0.024091,0.015846 v -0.00163 c 0.00122,0 0.00122,0.00123 0.00243,0.00163 a 0.4015104,0.41696845 0 0 0 0.422788,-0.5245469 1.4414225,1.4969167 0 0 1 0.00802,-0.1075774 c 0.00601,-0.058791 0.014856,-0.1225889 0.021684,-0.1759613 l 0.00882,-0.073386 c 0.00122,-0.011672 0.00278,-0.023349 0.00399,-0.039196 7.856e-4,-0.015428 0.010442,-0.011671 -0.00399,-0.1063268 -0.025697,-0.1667871 -0.081909,-0.1709571 -0.1453465,-0.2418415 0.00565,-0.00253 0,4.172e-4 0.00643,-0.00163 C 4.4278692,5.9317569 4.5515349,5.9042329 4.682026,5.8596196 5.0694958,5.7261886 5.4228246,5.5877551 5.7637066,5.5239593 a 0.4015104,0.41696845 0 0 0 0,-8.211e-4 C 6.0327237,5.4730952 6.4262045,5.4939419 6.8437752,5.2896265 7.3352237,5.048619 7.5476232,4.673347 7.7644387,4.5490907 8.4092642,4.1800735 9.095847,3.8348237 9.759945,3.7118176 c 0.2087855,-0.038361 0.39629,-0.035857 0.58219,-0.032525 z M 9.705286,18.088458 c 0.00203,0.0062 0.063439,0.06671 0.0799,0.0984 -0.012447,-0.0091 -0.019273,-0.0074 -0.030516,-0.02043 -0.041356,-0.04585 -0.053399,-0.08964 -0.049394,-0.07797 z"
   font-weight="400"
   overflow="visible"
   id="path2231" /></svg>