<svg width="24" height="24" viewBox="0 0 24 24" fill="none" xmlns="http://www.w3.org/2000/svg">
<path d="M3 0H21C22.6569 0 24 1.34315 24 3V21C24 22.6569 22.6569 24 21 24H3C1.34315 24 0 22.6569 0 21V3C0 1.34315 1.34315 0 3 0Z" fill="#019EDB"/>
<path fill-rule="evenodd" clip-rule="evenodd" d="M10.4015 2.81614C10.1229 2.80655 9.85746 2.84617 9.61896 2.89036C8.79747 3.04214 8.04423 3.43743 7.37692 3.81937C6.91318 4.08498 6.70921 4.43356 6.50083 4.53531C6.30931 4.62912 6.00295 4.63162 5.62112 4.70293C5.18106 4.78549 4.7928 4.94352 4.42984 5.06777C4.37403 5.08696 4.22306 5.12198 4.06205 5.18202C3.90145 5.24165 3.69668 5.31587 3.55093 5.56563C3.55067 5.56591 3.55041 5.56618 3.55014 5.56645C3.48069 5.68571 3.43371 5.84916 3.459 6.00927C3.44977 6.01221 3.44053 6.00093 3.4317 6.00428C3.23214 6.08475 3.12815 6.29699 3.10286 6.43209C3.0832 6.54301 3.08279 6.65668 3.10164 6.76775C3.12774 6.95997 3.18515 7.14594 3.18837 7.15928C3.2514 7.43031 3.27871 7.57333 3.23855 7.7839C3.23855 7.78363 3.23855 7.78417 3.23855 7.7839C3.2217 7.87439 3.14019 8.04074 3.03941 8.24339C2.93903 8.44562 2.81055 8.69997 2.82862 9.03146C2.84628 9.36003 3.03218 9.60896 3.18155 9.75573C3.33051 9.90209 3.44855 9.99507 3.49472 10.0593C3.4935 10.0605 3.49628 10.0519 3.48187 10.0856C3.43731 10.1873 3.27991 10.4963 3.40117 10.8344C3.46139 11.0025 3.54774 11.0792 3.58628 11.123C3.59551 11.1338 3.5951 11.1342 3.59953 11.1396C3.59352 11.1363 3.58388 11.2606 3.55697 11.4624C3.55697 11.4621 3.55697 11.4627 3.55697 11.4624C3.50438 11.8635 3.38031 12.4122 3.57826 12.9726C3.73645 13.4188 3.99703 13.6306 4.05284 13.7853C4.08135 13.8645 4.07855 13.9196 4.04641 14.0313C4.01429 14.1426 3.94282 14.2907 3.86854 14.4725C3.81087 14.608 3.76908 14.7502 3.74407 14.8961C3.72721 14.9953 3.68224 15.1038 3.78824 15.3156C3.84164 15.4211 3.98136 15.5407 4.11627 15.5658C4.25118 15.5899 4.34754 15.5557 4.42222 15.5224C4.55713 15.4611 4.58403 15.3689 4.63462 15.2826C4.69364 15.4086 4.77836 15.5979 4.97871 15.7446C5.17947 15.8914 5.37782 15.941 5.51754 15.9831C5.65727 16.0249 5.73837 16.0561 5.80141 16.1078C5.9046 16.1925 6.0905 16.3009 6.29768 16.3384C6.24989 16.4535 6.19449 16.5969 6.24548 16.7787C6.34265 17.1294 6.57432 17.2345 6.5968 17.2595C6.61567 17.2803 6.6767 17.5213 6.96659 17.7398C7.23038 17.9383 7.54878 17.9262 7.79491 17.809C8.0053 17.709 8.17313 17.488 8.22613 17.2128C8.38352 17.3037 8.54573 17.3433 8.70674 17.3675C8.67582 17.4767 8.62483 17.581 8.64892 17.6677C8.64892 17.6676 8.64892 17.6678 8.64892 17.6677C8.70112 17.8537 8.76054 17.8741 8.80511 17.9175C8.91127 18.0156 9.02778 18.1009 9.15242 18.1718C9.36321 18.2886 9.59327 18.2761 9.71373 18.2577C9.80728 18.2435 9.81691 18.2444 9.83217 18.2448C9.88156 18.3253 9.89481 18.392 9.99519 18.4458C10.1369 18.5221 10.2578 18.5358 10.3341 18.5479C10.4107 18.5596 10.4441 18.5729 10.426 18.5642C10.3915 18.5467 10.5047 18.6976 10.5151 18.7593C10.5348 18.8719 10.5762 19.1596 10.695 19.4486C10.754 19.5928 10.8331 19.7442 10.9632 19.8781C11.0929 20.0127 11.2901 20.1257 11.5113 20.1382C11.6819 20.1483 11.7574 20.1028 11.8429 20.0674C11.9285 20.0319 12.008 19.9906 12.0814 19.9519C12.1457 19.9177 12.2007 19.8881 12.2444 19.8655C12.3171 19.881 12.3922 19.9143 12.4022 19.9331C12.4054 19.9393 12.4122 20.0219 12.4649 20.2099C12.491 20.3042 12.544 20.4368 12.6584 20.5435C12.7728 20.6507 12.9274 20.7053 13.0712 20.7187C13.3703 20.747 13.6329 20.6386 13.8184 20.5177C14.0039 20.3967 14.1364 20.2692 14.2355 20.1966C14.2885 20.1582 14.3054 20.1566 14.3917 20.1657C14.478 20.1753 14.6138 20.2175 14.7876 20.2587C15.0747 20.3267 15.3449 20.2471 15.5131 20.1641C15.681 20.0815 15.7721 20.0215 15.8745 19.9965C16.1933 19.9193 16.4647 20.0256 16.8108 20.2366C17.1569 20.448 17.5291 20.7628 17.9965 20.9542C18.0367 20.9705 18.2294 21.071 18.445 21.1269C18.5534 21.1548 18.6746 21.1819 18.8364 21.1473C18.9983 21.1127 19.2046 20.9471 19.2661 20.7491C19.3355 20.5256 19.2686 20.3634 19.2151 20.2441C19.1648 20.1362 19.1053 20.0332 19.0372 19.9364C18.9304 19.7771 18.8365 19.5899 18.8284 19.6049C18.7718 19.3264 18.8593 19.052 19.0545 18.731C19.254 18.4024 19.5524 18.0671 19.7981 17.7269C20.092 17.3195 20.4654 16.9701 20.7617 16.6836C20.9099 16.5402 21.0371 16.418 21.1435 16.2717C21.1969 16.1983 21.2515 16.1186 21.2817 15.9856C21.3118 15.8526 21.2748 15.6362 21.1672 15.5124C21.1675 15.5124 21.167 15.5124 21.1672 15.5124C20.9841 15.3035 20.9151 15.1655 20.8998 15.1167C20.8986 15.1138 20.8991 15.1175 20.8982 15.115C20.9014 15.1142 20.9183 15.1 20.9862 14.9982C21.0239 14.9415 21.0809 14.8431 21.0869 14.7022C21.0885 14.569 21.046 14.4393 20.9665 14.3348C20.6585 13.9354 20.4486 13.7686 20.31 13.4259C20.2137 13.1882 20.1265 12.9197 20.0992 12.7095C20.0764 12.536 20.1342 12.2813 20.1446 11.9373C20.1538 11.6308 20.0932 11.2034 19.7628 10.9282C19.6118 10.8031 19.4745 10.7556 19.395 10.7164C19.3147 10.6772 19.3046 10.6618 19.3055 10.6626C19.279 10.6201 19.2854 10.6292 19.2906 10.6059C19.2954 10.5821 19.3211 10.5233 19.3785 10.4549C19.493 10.3182 19.7218 10.1635 19.8603 10.0959C20.1707 9.94499 20.4096 9.69898 20.4927 9.41002C20.5758 9.12148 20.5357 8.87338 20.51 8.60944C20.4225 7.71552 20.192 6.8624 20.0049 6.04598C19.9515 5.81289 19.9005 5.55271 19.7861 5.28877C19.6721 5.02441 19.4789 4.75421 19.1806 4.57783C18.9835 4.46067 18.806 4.38311 18.6703 4.2993C18.3017 4.07163 17.8994 4.06747 17.5324 4.17546C16.957 4.34392 16.3375 4.31181 15.6533 4.28929C15.0153 4.26845 14.3215 4.06913 13.5526 4.05871C13.4828 4.05789 13.3346 4.04828 13.1792 4.04995C13.0239 4.05158 12.8677 4.03744 12.6549 4.15169C12.4726 4.24968 12.381 4.38311 12.3296 4.44232C12.2791 4.50194 12.2847 4.49527 12.269 4.50069C12.1253 4.5453 11.7398 4.48985 11.5278 4.39103C11.4399 4.35058 11.3046 4.23091 11.2195 4.09289C11.1347 3.95529 11.105 3.81144 11.1167 3.7343C11.1215 3.70219 11.1576 3.71512 11.207 3.46994C11.2249 3.38339 11.2203 3.29346 11.1938 3.20934C11.1597 3.11163 11.0982 3.02679 11.0171 2.96583C10.8842 2.86868 10.7923 2.86159 10.6839 2.84366C10.5904 2.8284 10.496 2.81921 10.4015 2.81614ZM10.3421 3.67927C10.3161 3.98205 10.3866 4.28532 10.5428 4.54239C10.7054 4.80675 10.9255 5.02524 11.1997 5.15284C11.5586 5.31962 12.0268 5.44638 12.5002 5.29877C12.4999 5.29877 12.5005 5.29877 12.5002 5.29877C12.7106 5.23206 12.8539 5.08529 12.929 4.99772C12.9964 4.91975 13.0109 4.90599 13.0133 4.90349C13.0286 4.90349 13.1052 4.88389 13.188 4.88306C13.3016 4.88183 13.4297 4.8914 13.5413 4.89266C14.1713 4.901 14.8611 5.09822 15.6283 5.12324C16.2977 5.14534 17.0103 5.19496 17.7511 4.9773C18.0539 4.88849 18.0234 4.86973 18.2598 5.01567C18.459 5.13867 18.6409 5.2179 18.7822 5.30171C18.9183 5.38218 18.987 5.47558 19.0536 5.62986C19.1203 5.78414 19.1685 5.99638 19.2239 6.23905C19.4158 7.07632 19.6334 7.89609 19.7117 8.69458C19.7374 8.95852 19.7382 9.11989 19.7233 9.17159C19.7085 9.22329 19.7117 9.24664 19.5194 9.34005C19.5194 9.33977 19.5194 9.34032 19.5194 9.34005C19.2941 9.4497 19.0062 9.6294 18.7726 9.90794C18.6561 10.0472 18.5497 10.2165 18.5056 10.4317C18.4611 10.6672 18.5057 10.9115 18.63 11.1138C18.63 11.1135 18.63 11.1141 18.63 11.1138C18.7545 11.3148 18.9324 11.4123 19.0516 11.4707C19.1701 11.5291 19.2423 11.5645 19.2604 11.58C19.3447 11.6492 19.3487 11.6921 19.3423 11.911C19.3359 12.127 19.2524 12.4331 19.303 12.8209C19.303 12.8206 19.303 12.8211 19.303 12.8209C19.3471 13.1586 19.4604 13.478 19.5704 13.7494C19.7487 14.1885 19.994 14.417 20.218 14.6818C20.196 14.7151 20.1943 14.7039 20.1711 14.751C20.0948 14.907 20.0663 15.1546 20.1365 15.3773C20.1843 15.5274 20.3148 15.6871 20.4296 15.8455C20.3774 15.9056 20.3212 15.9702 20.2144 16.0736C19.9294 16.3497 19.5118 16.7337 19.1556 17.227C18.9509 17.5105 18.6313 17.8641 18.3755 18.2856C18.1193 18.7068 17.9162 19.2376 18.0491 19.8172C18.0888 19.9902 18.1611 20.0457 18.2261 20.1391C17.9338 20.0044 17.6074 19.7555 17.2184 19.5178C16.8052 19.2651 16.2836 19.0412 15.6918 19.1842C15.4385 19.2459 15.269 19.3618 15.1686 19.411C15.0683 19.4603 15.0626 19.469 14.9655 19.4461C14.8398 19.416 14.6796 19.3585 14.4748 19.336C14.2701 19.3139 14.0015 19.3489 13.7754 19.5136C13.6124 19.632 13.4915 19.7467 13.3916 19.8117C13.3165 19.8605 13.2643 19.8643 13.2045 19.8693C13.1953 19.7938 13.1976 19.7046 13.1065 19.5315C12.9138 19.1667 12.5512 19.0174 12.2107 19.0162C12.085 19.0157 12.0553 19.0412 12.0172 19.0566C11.9823 19.0709 11.948 19.0867 11.9144 19.1041C11.849 19.1371 11.7819 19.1742 11.7169 19.2088C11.6607 19.2393 11.6034 19.2674 11.545 19.293L11.5393 19.2947C11.5368 19.2922 11.5393 19.2969 11.5301 19.2873C11.4893 19.2379 11.4568 19.1818 11.4337 19.1213C11.3671 18.9591 11.3281 18.7419 11.3057 18.6122C11.2571 18.3312 11.1511 18.0043 10.7797 17.815C10.6379 17.7428 10.5251 17.7349 10.4541 17.7236C10.4187 17.7181 10.4239 17.7181 10.4095 17.7145C10.391 17.6758 10.3858 17.6466 10.3437 17.599C10.2686 17.5193 10.1739 17.4625 10.0699 17.4346C9.85309 17.3763 9.67644 17.4209 9.59774 17.4329C9.53551 17.442 9.54876 17.4397 9.54433 17.4354C9.57043 17.3871 9.60496 17.35 9.62223 17.2837C9.65837 17.1461 9.61535 16.8955 9.48973 16.7725C9.364 16.6494 9.25519 16.6336 9.16846 16.6177C9.08769 16.6042 9.00613 16.5962 8.92434 16.594C8.9246 16.594 8.92408 16.594 8.92434 16.594C8.74687 16.5855 8.69469 16.5739 8.57825 16.4914C8.5887 16.4984 8.5381 16.4505 8.46382 16.3805C8.38954 16.3108 8.27471 16.2012 8.07074 16.172C7.92219 16.1511 7.73227 16.1486 7.56685 16.3025C7.40103 16.4563 7.39139 16.669 7.40143 16.7812C7.41146 16.8937 7.43475 16.9688 7.44921 17.0247C7.45607 17.0522 7.45486 17.0401 7.45723 17.0526C7.43876 17.0581 7.4247 17.0548 7.43796 17.0647C7.46486 17.0847 7.38938 16.9175 7.1818 16.6886C7.07058 16.5656 7.06777 16.5731 7.05934 16.5835L7.12358 16.4805C7.17377 16.4005 7.2605 16.2992 7.25929 16.0736C7.2552 15.9483 7.21162 15.8279 7.13523 15.7309C7.06916 15.6519 6.98549 15.5909 6.89151 15.5533C6.72529 15.482 6.58436 15.5032 6.50406 15.5149C6.42456 15.5266 6.38963 15.5278 6.41613 15.5303C6.34827 15.5241 6.41891 15.5512 6.29969 15.4532H6.29847C6.09892 15.2893 5.88974 15.2268 5.74038 15.1822C5.59061 15.1371 5.50027 15.1063 5.44085 15.0629C5.43041 15.0554 5.39989 15.0166 5.34569 14.9015C5.29149 14.7869 5.21962 14.5988 5.0297 14.4375C4.96827 14.3853 4.86026 14.3953 4.78117 14.3578C4.79281 14.3245 4.80526 14.3061 4.8157 14.2703C4.87834 14.0543 4.90443 13.772 4.80366 13.4926C4.64386 13.0494 4.38649 12.8396 4.33188 12.6849C4.24114 12.4281 4.29575 12.0119 4.35317 11.5766L4.35238 11.5775C4.36643 11.4699 4.46721 11.2255 4.37205 10.8882C4.32226 10.7135 4.22791 10.6159 4.18053 10.5617C4.16688 10.5463 4.16488 10.5421 4.15845 10.5334C4.15689 10.5371 4.14881 10.5759 4.21265 10.43C4.24798 10.3495 4.29978 10.2261 4.30299 10.0609C4.30577 9.89582 4.24477 9.71068 4.14038 9.56433C3.98941 9.35167 3.82359 9.23826 3.73365 9.14944C3.64371 9.06146 3.63407 9.04687 3.63086 8.98516C3.62808 8.92886 3.66539 8.80254 3.75332 8.62574C3.84085 8.44937 3.97094 8.23713 4.02635 7.94608C4.07854 7.66922 4.02478 7.44781 3.98379 7.22181C3.99463 7.22434 3.99664 7.23599 4.00788 7.23766V7.23603C4.0091 7.23603 4.0091 7.23726 4.01031 7.23766C4.07474 7.24356 4.13959 7.23321 4.19934 7.20749C4.25909 7.18177 4.31197 7.14144 4.35348 7.08994C4.395 7.03843 4.42392 6.97727 4.43778 6.91166C4.45164 6.84605 4.45003 6.77794 4.4331 6.71311C4.43452 6.67716 4.4372 6.64128 4.44112 6.60553C4.44713 6.54674 4.45597 6.48294 4.4628 6.42957L4.47162 6.35618C4.47284 6.34451 4.4744 6.33284 4.47561 6.31699C4.47639 6.30156 4.48605 6.30532 4.47162 6.21066C4.44592 6.04387 4.38971 6.0397 4.32226 5.96882C4.33192 5.96629 4.32627 5.96924 4.3327 5.96719C4.42787 5.93175 4.55153 5.90422 4.68202 5.85961C5.06949 5.72618 5.42282 5.58775 5.7637 5.52395C5.7637 5.52422 5.7637 5.52368 5.7637 5.52395C6.03272 5.47391 6.4262 5.49393 6.84377 5.28962C7.33522 5.04861 7.54762 4.67334 7.76443 4.54908C8.40926 4.18006 9.09584 3.83481 9.75994 3.71181C9.96873 3.67345 10.1562 3.67594 10.3421 3.67927ZM9.70528 18.0884C9.70731 18.0946 9.76872 18.1552 9.78518 18.1868C9.77273 18.1777 9.76591 18.1794 9.75467 18.1664C9.71331 18.1206 9.70128 18.0768 9.70528 18.0884Z" fill="white"/>
</svg>