<svg width="24" height="24" viewBox="0 0 24 24" fill="none" xmlns="http://www.w3.org/2000/svg">
<path d="M3 0H21C22.6569 0 24 1.34315 24 3V21C24 22.6569 22.6569 24 21 24H3C1.34315 24 0 22.6569 0 21V3C0 1.34315 1.34315 0 3 0Z" fill="#019EDB"/>
<path d="M11.4661 21.0278V17.1543C10.4961 17.1913 9.53536 17.3281 8.62122 17.5548C8.76841 17.9105 8.92955 18.2513 9.104 18.5729C9.80031 19.856 10.6657 20.743 11.4661 21.0278Z" fill="white"/>
<path d="M14.8959 18.5729C15.0704 18.2514 15.2315 17.9105 15.3787 17.5548C14.4646 17.3281 13.5039 17.1913 12.5338 17.1543V21.0278C13.3343 20.743 14.1996 19.856 14.8959 18.5729Z" fill="white"/>
<path d="M11.4662 16.0859V12.5337H7.57318C7.62187 13.9205 7.85845 15.2992 8.25465 16.5475C9.28598 16.2829 10.372 16.1248 11.4662 16.0859Z" fill="white"/>
<path d="M11.4662 11.4663V7.91403C10.372 7.87513 9.28598 7.71705 8.25465 7.45264C7.85845 8.70088 7.62187 10.0795 7.57318 11.4663H11.4662Z" fill="white"/>
<path d="M16.4112 6.14411C17.0605 5.92517 17.6761 5.65866 18.2421 5.3488C17.2482 4.41533 16.0459 3.70105 14.713 3.28528C15.1122 3.73639 15.4899 4.28355 15.8341 4.91786C16.0456 5.30723 16.238 5.71734 16.4112 6.14411Z" fill="white"/>
<path d="M9.104 5.42701C8.92955 5.74872 8.76841 6.08944 8.62122 6.44517C9.53536 6.6719 10.4961 6.8087 11.4661 6.84568V2.97217C10.6657 3.25701 9.80031 4.14393 9.104 5.42701Z" fill="white"/>
<path d="M12.5338 12.5337V16.0859C13.6281 16.125 14.714 16.2829 15.7453 16.5475C16.1415 15.2992 16.3781 13.9205 16.4269 12.5337H12.5338Z" fill="white"/>
<path d="M12.5338 7.91403V11.4663H16.4268C16.3781 10.0795 16.1415 8.70088 15.7453 7.45264C14.714 7.71705 13.6281 7.87513 12.5338 7.91403Z" fill="white"/>
<path d="M7.22692 16.8527C6.80015 15.509 6.55214 14.0384 6.50445 12.5337H2.88953C3.00643 14.5508 3.78132 16.394 5.00226 17.8517C5.68234 17.457 6.43203 17.122 7.22692 16.8527Z" fill="white"/>
<path d="M16.4112 17.856C16.2378 18.2827 16.0454 18.6928 15.8341 19.0823C15.4899 19.7167 15.1122 20.2637 14.713 20.7148C16.0459 20.299 17.2482 19.5847 18.2423 18.6512C17.6761 18.3414 17.0605 18.0749 16.4112 17.856Z" fill="white"/>
<path d="M7.58876 17.856C6.93943 18.0749 6.32387 18.3414 5.75781 18.6512C6.75174 19.5849 7.95411 20.299 9.28697 20.7149C8.88786 20.2637 8.51017 19.7167 8.16582 19.0823C7.95436 18.6928 7.76197 18.2827 7.58876 17.856Z" fill="white"/>
<path d="M16.773 7.14712C17.1998 8.49084 17.4478 9.96147 17.4955 11.4662H21.1104C20.9935 9.44907 20.2186 7.60602 18.9977 6.14832C18.3176 6.54298 17.5679 6.87786 16.773 7.14712Z" fill="white"/>
<path d="M16.773 16.8527C17.5679 17.122 18.3176 17.4569 18.9977 17.8515C20.2186 16.3939 20.9935 14.5507 21.1104 12.5337H17.4955C17.4478 14.0384 17.1998 15.509 16.773 16.8527Z" fill="white"/>
<path d="M12.5338 2.97217V6.84568C13.5039 6.8087 14.4646 6.6719 15.3787 6.44531C15.2315 6.08944 15.0705 5.74872 14.8959 5.42701C14.1996 4.14393 13.3343 3.25701 12.5338 2.97217Z" fill="white"/>
<path d="M7.22692 7.14712C6.43203 6.87786 5.68234 6.54298 5.00226 6.14832C3.78118 7.60602 3.00643 9.44922 2.88953 11.4662H6.50445C6.55214 9.96147 6.80015 8.49084 7.22692 7.14712Z" fill="white"/>
<path d="M7.58878 6.14411C7.76213 5.71734 7.95452 5.30723 8.16584 4.91786C8.51004 4.28341 8.88774 3.73639 9.28699 3.28528C7.95413 3.70105 6.75176 4.41533 5.75769 5.3488C6.22079 5.60225 6.71689 5.82667 7.2375 6.0198C7.35341 6.06279 7.47053 6.10425 7.58878 6.14411Z" fill="white"/>
</svg>