<?xml version="1.0" encoding="UTF-8" standalone="no"?>
<!DOCTYPE svg PUBLIC "-//W3C//DTD SVG 1.1//EN" "http://www.w3.org/Graphics/SVG/1.1/DTD/svg11.dtd">
<svg width="100%" height="100%" viewBox="0 0 24 24" version="1.1" xmlns="http://www.w3.org/2000/svg" xmlns:xlink="http://www.w3.org/1999/xlink" xml:space="preserve" xmlns:serif="http://www.serif.com/" style="fill-rule:evenodd;clip-rule:evenodd;stroke-linejoin:round;stroke-miterlimit:1.41421;">
    <rect id="Layer1" x="0" y="0" width="24" height="24" style="fill:rgb(1,158,219);"/>
    <g transform="matrix(0.101941,0,0,0.101941,-20.7206,-20.6605)">
        <g transform="matrix(0.349101,0,0,0.349101,231.606,231.129)">
            <path d="M241,509.355L241,400.512C213.742,401.551 186.746,405.395 161.059,411.766C165.195,421.762 169.723,431.336 174.625,440.375C194.191,476.43 218.508,501.352 241,509.355Z" style="fill:white;fill-rule:nonzero;"/>
        </g>
        <g transform="matrix(0.349101,0,0,0.349101,231.606,231.129)">
            <path d="M337.375,440.375C342.277,431.34 346.805,421.762 350.941,411.766C325.254,405.395 298.258,401.551 271,400.512L271,509.355C293.492,501.352 317.809,476.43 337.375,440.375Z" style="fill:white;fill-rule:nonzero;"/>
        </g>
        <g transform="matrix(0.349101,0,0,0.349101,231.606,231.129)">
            <path d="M241,370.492L241,270.676L131.609,270.676C132.977,309.645 139.625,348.387 150.758,383.461C179.738,376.027 210.254,371.586 241,370.492Z" style="fill:white;fill-rule:nonzero;"/>
        </g>
        <g transform="matrix(0.349101,0,0,0.349101,231.606,231.129)">
            <path d="M241,240.68L241,140.863C210.254,139.77 179.738,135.328 150.758,127.898C139.625,162.973 132.977,201.711 131.609,240.68L241,240.68Z" style="fill:white;fill-rule:nonzero;"/>
        </g>
        <g transform="matrix(0.349101,0,0,0.349101,231.606,231.129)">
            <path d="M379.953,91.129C398.199,84.977 415.496,77.488 431.402,68.781C403.473,42.551 369.688,22.48 332.234,10.797C343.453,23.473 354.066,38.848 363.738,56.672C369.68,67.613 375.086,79.137 379.953,91.129Z" style="fill:white;fill-rule:nonzero;"/>
        </g>
        <g transform="matrix(0.349101,0,0,0.349101,231.606,231.129)">
            <path d="M174.625,70.98C169.723,80.02 165.195,89.594 161.059,99.59C186.746,105.961 213.742,109.805 241,110.844L241,2C218.508,10.004 194.191,34.926 174.625,70.98Z" style="fill:white;fill-rule:nonzero;"/>
        </g>
        <g transform="matrix(0.349101,0,0,0.349101,231.606,231.129)">
            <path d="M271,270.676L271,370.492C301.75,371.59 332.262,376.027 361.242,383.461C372.375,348.387 379.023,309.645 380.395,270.676L271,270.676Z" style="fill:white;fill-rule:nonzero;"/>
        </g>
        <g transform="matrix(0.349101,0,0,0.349101,231.606,231.129)">
            <path d="M271,140.863L271,240.68L380.391,240.68C379.023,201.711 372.375,162.973 361.242,127.898C332.262,135.328 301.75,139.77 271,140.863Z" style="fill:white;fill-rule:nonzero;"/>
        </g>
        <g transform="matrix(0.349101,0,0,0.349101,231.606,231.129)">
            <path d="M121.879,392.039C109.887,354.281 102.918,312.957 101.578,270.676L0,270.676C3.285,327.355 25.059,379.148 59.367,420.109C78.477,409.02 99.543,399.605 121.879,392.039Z" style="fill:white;fill-rule:nonzero;"/>
        </g>
        <g transform="matrix(0.349101,0,0,0.349101,231.606,231.129)">
            <path d="M379.953,420.227C375.082,432.219 369.676,443.742 363.738,454.688C354.066,472.512 343.453,487.883 332.234,500.559C369.688,488.875 403.473,468.805 431.406,442.574C415.496,433.867 398.199,426.379 379.953,420.227Z" style="fill:white;fill-rule:nonzero;"/>
        </g>
        <g transform="matrix(0.349101,0,0,0.349101,231.606,231.129)">
            <path d="M132.047,420.227C113.801,426.379 96.504,433.867 80.598,442.574C108.527,468.809 142.313,488.875 179.766,500.563C168.551,487.883 157.938,472.512 148.262,454.688C142.32,443.742 136.914,432.219 132.047,420.227Z" style="fill:white;fill-rule:nonzero;"/>
        </g>
        <g transform="matrix(0.349101,0,0,0.349101,231.606,231.129)">
            <path d="M390.121,119.316C402.113,157.074 409.082,198.398 410.422,240.68L512,240.68C508.715,184 486.941,132.211 452.633,91.25C433.523,102.34 412.457,111.75 390.121,119.316Z" style="fill:white;fill-rule:nonzero;"/>
        </g>
        <g transform="matrix(0.349101,0,0,0.349101,231.606,231.129)">
            <path d="M390.121,392.039C412.457,399.605 433.523,409.016 452.633,420.105C486.941,379.145 508.715,327.352 512,270.676L410.422,270.676C409.082,312.957 402.113,354.281 390.121,392.039Z" style="fill:white;fill-rule:nonzero;"/>
        </g>
        <g transform="matrix(0.349101,0,0,0.349101,231.606,231.129)">
            <path d="M271,2L271,110.844C298.258,109.805 325.254,105.961 350.941,99.594C346.805,89.594 342.281,80.02 337.375,70.98C317.809,34.926 293.492,10.004 271,2Z" style="fill:white;fill-rule:nonzero;"/>
        </g>
        <g transform="matrix(0.349101,0,0,0.349101,231.606,231.129)">
            <path d="M121.879,119.316C99.543,111.75 78.477,102.34 59.367,91.25C25.055,132.211 3.285,184.004 0,240.68L101.578,240.68C102.918,198.398 109.887,157.074 121.879,119.316Z" style="fill:white;fill-rule:nonzero;"/>
        </g>
        <g transform="matrix(0.349101,0,0,0.349101,231.606,231.129)">
            <path d="M132.047,91.129C136.918,79.137 142.324,67.613 148.262,56.672C157.934,38.844 168.547,23.473 179.766,10.797C142.313,22.48 108.527,42.551 80.594,68.781C93.607,75.903 107.547,82.209 122.176,87.636C125.433,88.844 128.724,90.009 132.047,91.129Z" style="fill:white;fill-rule:nonzero;"/>
        </g>
    </g>
</svg>
