<svg width="17" height="17" viewBox="0 0 17 17" fill="none" xmlns="http://www.w3.org/2000/svg">
<path d="M3 0H14C15.6569 0 17 1.34315 17 3V14C17 15.6569 15.6569 17 14 17H3C1.34315 17 0 15.6569 0 14V3C0 1.34315 1.34315 0 3 0Z" fill="#019EDB"/>
<path d="M9.125 6.625H7.875V5.375H9.125M9.125 11.625H7.875V7.875H9.125M8.5 2.25C7.67924 2.25 6.86651 2.41166 6.10823 2.72575C5.34994 3.03984 4.66095 3.50022 4.08058 4.08058C2.90848 5.25269 2.25 6.8424 2.25 8.5C2.25 10.1576 2.90848 11.7473 4.08058 12.9194C4.66095 13.4998 5.34994 13.9602 6.10823 14.2742C6.86651 14.5883 7.67924 14.75 8.5 14.75C10.1576 14.75 11.7473 14.0915 12.9194 12.9194C14.0915 11.7473 14.75 10.1576 14.75 8.5C14.75 7.67924 14.5883 6.86651 14.2742 6.10823C13.9602 5.34994 13.4998 4.66095 12.9194 4.08058C12.3391 3.50022 11.6501 3.03984 10.8918 2.72575C10.1335 2.41166 9.32076 2.25 8.5 2.25Z" fill="white"/>
</svg>
