<svg width="17" height="17" viewBox="0 0 17 17" fill="none" xmlns="http://www.w3.org/2000/svg">
<path d="M3 0H14C15.6569 0 17 1.34315 17 3V14C17 15.6569 15.6569 17 14 17H3C1.34315 17 0 15.6569 0 14V3C0 1.34315 1.34315 0 3 0Z" fill="white"/>
<path d="M4.95831 3.54167H14.875V4.95833H4.95831V3.54167ZM4.95831 9.20833V7.79167H14.875V9.20833H4.95831ZM2.83331 3.1875C3.11511 3.1875 3.38536 3.29944 3.58461 3.4987C3.78387 3.69796 3.89581 3.96821 3.89581 4.25C3.89581 4.53179 3.78387 4.80204 3.58461 5.0013C3.38536 5.20056 3.11511 5.3125 2.83331 5.3125C2.55152 5.3125 2.28127 5.20056 2.08201 5.0013C1.88275 4.80204 1.77081 4.53179 1.77081 4.25C1.77081 3.96821 1.88275 3.69796 2.08201 3.4987C2.28127 3.29944 2.55152 3.1875 2.83331 3.1875ZM2.83331 7.4375C3.11511 7.4375 3.38536 7.54944 3.58461 7.7487C3.78387 7.94796 3.89581 8.21821 3.89581 8.5C3.89581 8.78179 3.78387 9.05204 3.58461 9.2513C3.38536 9.45056 3.11511 9.5625 2.83331 9.5625C2.55152 9.5625 2.28127 9.45056 2.08201 9.2513C1.88275 9.05204 1.77081 8.78179 1.77081 8.5C1.77081 8.21821 1.88275 7.94796 2.08201 7.7487C2.28127 7.54944 2.55152 7.4375 2.83331 7.4375ZM4.95831 13.4583V12.0417H14.875V13.4583H4.95831ZM2.83331 11.6875C3.11511 11.6875 3.38536 11.7994 3.58461 11.9987C3.78387 12.198 3.89581 12.4682 3.89581 12.75C3.89581 13.0318 3.78387 13.302 3.58461 13.5013C3.38536 13.7006 3.11511 13.8125 2.83331 13.8125C2.55152 13.8125 2.28127 13.7006 2.08201 13.5013C1.88275 13.302 1.77081 13.0318 1.77081 12.75C1.77081 12.4682 1.88275 12.198 2.08201 11.9987C2.28127 11.7994 2.55152 11.6875 2.83331 11.6875Z" fill="#019EDB"/>
</svg>
