<svg width="17" height="17" viewBox="0 0 17 17" fill="none" xmlns="http://www.w3.org/2000/svg">
<path d="M3 0H14C15.6569 0 17 1.34315 17 3V14C17 15.6569 15.6569 17 14 17H3C1.34315 17 0 15.6569 0 14V3C0 1.34315 1.34315 0 3 0Z" fill="white"/>
<path d="M9.75 2.25H4.75C4.0625 2.25 3.5 2.8125 3.5 3.5V13.5C3.5 14.1875 4.0625 14.75 4.75 14.75H12.25C12.9375 14.75 13.5 14.1875 13.5 13.5V6L9.75 2.25ZM10.375 11L9.125 13.5H7.25L8.5 11H6.625V7.875H10.375V11ZM9.125 6.625V3.1875L12.5625 6.625H9.125Z" fill="#019EDB"/>
</svg>
