<svg width="17" height="17" viewBox="0 0 17 17" fill="none" xmlns="http://www.w3.org/2000/svg">
<path d="M3 0H14C15.6569 0 17 1.34315 17 3V14C17 15.6569 15.6569 17 14 17H3C1.34315 17 0 15.6569 0 14V3C0 1.34315 1.34315 0 3 0Z" fill="white"/>
<path d="M8.50002 10.6875C7.91986 10.6875 7.36346 10.457 6.95323 10.0468C6.54299 9.63656 6.31252 9.08016 6.31252 8.5C6.31252 7.91984 6.54299 7.36344 6.95323 6.9532C7.36346 6.54297 7.91986 6.3125 8.50002 6.3125C9.08018 6.3125 9.63658 6.54297 10.0468 6.9532C10.4571 7.36344 10.6875 7.91984 10.6875 8.5C10.6875 9.08016 10.4571 9.63656 10.0468 10.0468C9.63658 10.457 9.08018 10.6875 8.50002 10.6875ZM13.1438 9.10625C13.1688 8.90625 13.1875 8.70625 13.1875 8.5C13.1875 8.29375 13.1688 8.0875 13.1438 7.875L14.4625 6.85625C14.5813 6.7625 14.6125 6.59375 14.5375 6.45625L13.2875 4.29375C13.2125 4.15625 13.0438 4.1 12.9063 4.15625L11.35 4.78125C11.025 4.5375 10.6875 4.325 10.2938 4.16875L10.0625 2.5125C10.0375 2.3625 9.90627 2.25 9.75002 2.25H7.25002C7.09377 2.25 6.96252 2.3625 6.93752 2.5125L6.70627 4.16875C6.31252 4.325 5.97502 4.5375 5.65002 4.78125L4.09377 4.15625C3.95627 4.1 3.78752 4.15625 3.71252 4.29375L2.46252 6.45625C2.38127 6.59375 2.41877 6.7625 2.53752 6.85625L3.85627 7.875C3.83127 8.0875 3.81252 8.29375 3.81252 8.5C3.81252 8.70625 3.83127 8.90625 3.85627 9.10625L2.53752 10.1438C2.41877 10.2375 2.38127 10.4063 2.46252 10.5438L3.71252 12.7062C3.78752 12.8437 3.95627 12.8938 4.09377 12.8438L5.65002 12.2125C5.97502 12.4625 6.31252 12.675 6.70627 12.8313L6.93752 14.4875C6.96252 14.6375 7.09377 14.75 7.25002 14.75H9.75002C9.90627 14.75 10.0375 14.6375 10.0625 14.4875L10.2938 12.8313C10.6875 12.6688 11.025 12.4625 11.35 12.2125L12.9063 12.8438C13.0438 12.8938 13.2125 12.8437 13.2875 12.7062L14.5375 10.5438C14.6125 10.4063 14.5813 10.2375 14.4625 10.1438L13.1438 9.10625Z" fill="#019EDB"/>
</svg>
