<svg width="17" height="17" viewBox="0 0 17 17" fill="none" xmlns="http://www.w3.org/2000/svg">
<path d="M3 0H14C15.6569 0 17 1.34315 17 3V14C17 15.6569 15.6569 17 14 17H3C1.34315 17 0 15.6569 0 14V3C0 1.34315 1.34315 0 3 0Z" fill="#019EDB"/>
<path d="M13.5 2.25H3.5C2.8125 2.25 2.25 2.8125 2.25 3.5V13.5C2.25 14.1875 2.8125 14.75 3.5 14.75H13.5C14.1875 14.75 14.75 14.1875 14.75 13.5V3.5C14.75 2.8125 14.1875 2.25 13.5 2.25ZM3.5 3.5H6V9.75H3.5V3.5ZM3.5 13.5V11H6V13.5H3.5ZM13.5 13.5H7.25V7.25H13.5V13.5ZM13.5 6H7.25V3.5H13.5V6Z" fill="white"/>
</svg>
