<svg width="24" height="24" viewBox="0 0 24 24" fill="none" xmlns="http://www.w3.org/2000/svg">
<path d="M3 0H21C22.6569 0 24 1.34315 24 3V21C24 22.6569 22.6569 24 21 24H3C1.34315 24 0 22.6569 0 21V3C0 1.34315 1.34315 0 3 0Z" fill="#019EDB"/>
<path d="M22.2295 11.4006H21.0107C20.8684 9.21403 19.9493 7.17792 18.3857 5.61428C16.8221 4.05069 14.786 3.13167 12.5994 2.98934V1.77051H11.4006V2.98934C9.21407 3.13167 7.17792 4.05069 5.61432 5.61428C4.05073 7.17792 3.13167 9.21403 2.98934 11.4006H1.77051V12.5994H2.98934C3.13167 14.786 4.05073 16.8221 5.61432 18.3857C7.17792 19.9493 9.21407 20.8684 11.4006 21.0107V22.2295H12.5994V21.0107C14.786 20.8684 16.8221 19.9493 18.3857 18.3857C19.9493 16.8221 20.8684 14.786 21.0107 12.5994H22.2295V11.4006ZM12.5994 19.8092V18.6332H11.4006V19.8092C7.55889 19.5171 4.48288 16.4412 4.19078 12.5994H5.36682V11.4006H4.19078C4.48288 7.55885 7.55889 4.48288 11.4006 4.19078V5.36682H12.5994V4.19078C16.4411 4.48288 19.5171 7.55889 19.8092 11.4006H18.6332V12.5994H19.8092C19.5171 16.4412 16.4411 19.5171 12.5994 19.8092Z" fill="white"/>
<path d="M12.0001 15.0665C13.6936 15.0665 15.0666 13.6936 15.0666 12C15.0666 10.3064 13.6936 8.93347 12.0001 8.93347C10.3065 8.93347 8.93353 10.3064 8.93353 12C8.93353 13.6936 10.3065 15.0665 12.0001 15.0665Z" fill="white"/>
</svg>