<svg width="24" height="24" viewBox="0 0 24 24" fill="none" xmlns="http://www.w3.org/2000/svg">
<path d="M3 0H21C22.6569 0 24 1.34315 24 3V21C24 22.6569 22.6569 24 21 24H3C1.34315 24 0 22.6569 0 21V3C0 1.34315 1.34315 0 3 0Z" fill="#019EDB"/>
<path d="M18.8938 9.38884L12.1358 5.86289C12.05 5.81882 11.9495 5.81882 11.8637 5.86289L5.10563 9.38884C5.00925 9.43939 4.94812 9.53927 4.94812 9.64918C4.94812 9.75909 5.00925 9.85898 5.10621 9.90953L11.8643 13.4355C11.9066 13.4578 11.953 13.469 12 13.469C12.047 13.469 12.0935 13.4578 12.1358 13.4355L18.8938 9.90953C18.9908 9.85898 19.0519 9.75909 19.0519 9.64918C19.0519 9.53927 18.9908 9.43939 18.8938 9.38884Z" fill="white"/>
<path d="M18.8938 11.7394L17.7755 11.1559L12.4073 13.9567C12.2809 14.0225 12.1405 14.0566 12 14.0566C11.8596 14.0566 11.7191 14.0225 11.5945 13.9579L6.22451 11.1559L5.10621 11.7394C5.00925 11.79 4.94812 11.8899 4.94812 11.9998C4.94812 12.1097 5.00925 12.2096 5.10621 12.2601L11.8643 15.7861C11.9066 15.8084 11.953 15.8196 12 15.8196C12.047 15.8196 12.0935 15.8084 12.1358 15.7861L18.8938 12.2601C18.9908 12.2096 19.0519 12.1097 19.0519 11.9998C19.0519 11.8899 18.9908 11.79 18.8938 11.7394Z" fill="white"/>
<path d="M18.8938 14.0901L17.7755 13.5066L12.4073 16.3074C12.2809 16.3732 12.1405 16.4073 12 16.4073C11.8596 16.4073 11.7191 16.3732 11.5945 16.3086L6.22451 13.5066L5.10621 14.0901C5.00925 14.1407 4.94812 14.2406 4.94812 14.3505C4.94812 14.4603 5.00925 14.5602 5.10621 14.6108L11.8643 18.1367C11.9066 18.1591 11.953 18.1702 12 18.1702C12.047 18.1702 12.0935 18.1591 12.1358 18.1367L18.8938 14.6108C18.9908 14.5602 19.0519 14.4604 19.0519 14.3505C19.0519 14.2406 18.9908 14.1407 18.8938 14.0901Z" fill="white"/>
</svg>