<?xml version="1.0" encoding="UTF-8" standalone="no"?>
<!DOCTYPE svg PUBLIC "-//W3C//DTD SVG 1.1//EN" "http://www.w3.org/Graphics/SVG/1.1/DTD/svg11.dtd">
<svg width="100%" height="100%" viewBox="0 0 24 24" version="1.1" xmlns="http://www.w3.org/2000/svg" xmlns:xlink="http://www.w3.org/1999/xlink" xml:space="preserve" xmlns:serif="http://www.serif.com/" style="fill-rule:evenodd;clip-rule:evenodd;stroke-linejoin:round;stroke-miterlimit:1.41421;">
    <g id="Layer1">
        <rect x="0" y="0" width="24" height="24" style="fill:rgb(1,158,219);"/>
    </g>
    <g transform="matrix(0.0275465,0,0,0.0275465,4.9481,4.9481)">
        <g id="Layer2">
            <g>
                <path d="M506.261,161.208L260.928,33.208C257.813,31.608 254.165,31.608 251.051,33.208L5.718,161.208C2.219,163.043 0,166.669 0,170.659C0,174.649 2.219,178.275 5.739,180.11L251.072,308.11C252.608,308.921 254.293,309.326 256,309.326C257.707,309.326 259.392,308.921 260.928,308.11L506.261,180.11C509.781,178.275 512,174.649 512,170.659C512,166.669 509.781,163.043 506.261,161.208Z" style="fill:white;fill-rule:nonzero;"/>
                <path d="M506.261,246.541L465.664,225.357L270.784,327.032C266.197,329.421 261.099,330.659 256,330.659C250.901,330.659 245.803,329.422 241.28,327.075L46.336,225.357L5.739,246.541C2.219,248.376 0,252.003 0,255.992C0,259.981 2.219,263.608 5.739,265.443L251.072,393.443C252.608,394.254 254.293,394.659 256,394.659C257.707,394.659 259.392,394.254 260.928,393.443L506.261,265.443C509.781,263.608 512,259.982 512,255.992C512,252.003 509.781,248.376 506.261,246.541Z" style="fill:white;fill-rule:nonzero;"/>
                <path d="M506.261,331.875L465.664,310.691L270.784,412.366C266.197,414.755 261.099,415.993 256,415.993C250.901,415.993 245.803,414.756 241.28,412.409L46.336,310.691L5.739,331.875C2.219,333.709 0,337.336 0,341.325C0,345.314 2.219,348.941 5.739,350.776L251.072,478.776C252.608,479.587 254.293,479.992 256,479.992C257.707,479.992 259.392,479.587 260.928,478.776L506.261,350.776C509.781,348.941 512,345.315 512,341.325C512,337.336 509.781,333.709 506.261,331.875Z" style="fill:white;fill-rule:nonzero;"/>
            </g>
        </g>
    </g>
</svg>
