<svg width="52" height="52" viewBox="0 0 52 52" fill="none" xmlns="http://www.w3.org/2000/svg">
<rect width="52" height="52" fill="#009FDB"/>
<path d="M40.625 32.5H11.375V13H40.625M40.625 9.75H11.375C9.57125 9.75 8.125 11.1962 8.125 13V32.5C8.125 33.362 8.46741 34.1886 9.0769 34.7981C9.6864 35.4076 10.513 35.75 11.375 35.75H22.75V39H19.5V42.25H32.5V39H29.25V35.75H40.625C41.487 35.75 42.3136 35.4076 42.9231 34.7981C43.5326 34.1886 43.875 33.362 43.875 32.5V13C43.875 11.1962 42.4125 9.75 40.625 9.75Z" fill="white"/>
<path d="M29.6723 19.6836C29.6723 21.7126 28.029 23.3559 26 23.3559C23.971 23.3559 22.3277 21.7126 22.3277 19.6836L22.4287 18.8206L19.5734 17.3884L26 14.1751L32.4266 17.3884V21.9788H31.5085V17.8475L29.5713 18.8206L29.6723 19.6836ZM26 25.1921C30.0579 25.1921 33.3446 26.8355 33.3446 28.8644V30.7006H18.6554V28.8644C18.6554 26.8355 21.9421 25.1921 26 25.1921Z" fill="white"/>
</svg>
