<svg width="24" height="24" viewBox="0 0 24 24" fill="none" xmlns="http://www.w3.org/2000/svg">
<path d="M3 0H21C22.6569 0 24 1.34315 24 3V21C24 22.6569 22.6569 24 21 24H3C1.34315 24 0 22.6569 0 21V3C0 1.34315 1.34315 0 3 0Z" fill="#019EDB"/>
<path d="M12.0973 2.68779C17.173 2.68779 21.3026 6.8548 21.3026 11.9777C21.3026 17.1007 17.173 21.2686 12.0973 21.2686C7.02113 21.2686 2.8916 17.1007 2.8916 11.9777C2.8916 6.8548 7.02113 2.68779 12.0973 2.68779ZM12.0973 1.77954C6.51758 1.77954 1.99219 6.34703 1.99219 11.9777C1.99219 17.6142 6.51758 22.1769 12.0973 22.1769C17.6771 22.1769 22.2025 17.6146 22.2025 11.9777C22.2025 6.34703 17.6766 1.77954 12.0973 1.77954Z" fill="white"/>
<path d="M16.3389 11.7182V8.64245C16.3389 8.59635 16.3259 8.55416 16.3067 8.51533C16.3183 8.48391 16.3389 8.45618 16.3389 8.42138C16.3389 8.28983 16.2496 8.1741 16.1198 8.13783L11.8934 6.95874C11.8392 6.94377 11.782 6.94377 11.7277 6.95874L7.50128 8.13783C7.37155 8.1741 7.28223 8.28983 7.28223 8.42138C7.28223 8.55292 7.37155 8.66865 7.50128 8.70493L9.09356 9.14913V9.49798C9.09356 9.83333 9.28431 10.1416 9.57942 10.2833C10.9326 10.9327 12.6879 10.9324 14.0417 10.2836C14.3368 10.1419 14.5276 9.83363 14.5276 9.49798V9.14913L15.7351 8.81226V11.7182C15.3845 11.8403 15.1314 12.1644 15.1314 12.5482V13.1377C15.1314 13.3006 15.2664 13.4325 15.4332 13.4325H16.6408C16.8077 13.4325 16.9427 13.3006 16.9427 13.1377V12.5482C16.9427 12.1644 16.6895 11.8403 16.3389 11.7182Z" fill="white"/>
<path d="M14.2775 10.8519C13.5186 11.2161 12.6551 11.4084 11.7804 11.4084C10.9057 11.4084 10.0419 11.2158 9.28274 10.8516C9.2086 10.8161 9.14719 10.7633 9.0813 10.7163C9.14578 11.7773 9.7304 12.6776 10.5566 13.1388C10.5566 13.1388 10.9804 13.3343 11.1128 13.3711L11.1133 13.3701C11.3278 13.4298 11.5486 13.4718 11.7804 13.4718C11.9927 13.4718 12.295 13.4304 12.5971 13.3215C12.7363 13.2731 13.0032 13.1394 13.0032 13.1394C13.8299 12.6783 14.4149 11.7778 14.4795 10.7164C14.4134 10.7635 14.3518 10.8163 14.2775 10.8519Z" fill="white"/>
<path d="M11.7804 14.0613C11.537 14.0613 11.3028 14.0246 11.0746 13.9708L11.7804 15.0045L12.4822 13.9718C12.2552 14.025 12.0223 14.0613 11.7804 14.0613Z" fill="white"/>
<path d="M13.5182 13.5326C13.5128 13.5361 13.5068 13.5385 13.5015 13.542L13.2476 13.9139C13.2476 13.9276 12.0901 15.618 12.0823 15.6295V17.009H16.0068C16.1737 17.009 16.3087 16.8772 16.3087 16.7142C16.3087 15.1045 15.0953 13.7831 13.5182 13.5326Z" fill="white"/>
<path d="M10.0538 13.5387C10.0489 13.5355 10.0434 13.5333 10.0385 13.53C8.46301 13.7823 7.25208 15.1056 7.25208 16.7143C7.25208 16.8773 7.3871 17.0091 7.55396 17.0091H11.4785V15.6295C10.1104 13.6223 10.3896 14.0321 10.0538 13.5387Z" fill="white"/>
</svg>