<?xml version="1.0" encoding="UTF-8" standalone="no"?>
<svg
   xmlns:dc="http://purl.org/dc/elements/1.1/"
   xmlns:cc="http://creativecommons.org/ns#"
   xmlns:rdf="http://www.w3.org/1999/02/22-rdf-syntax-ns#"
   xmlns:svg="http://www.w3.org/2000/svg"
   xmlns="http://www.w3.org/2000/svg"
   xmlns:sodipodi="http://sodipodi.sourceforge.net/DTD/sodipodi-0.dtd"
   xmlns:inkscape="http://www.inkscape.org/namespaces/inkscape"
   width="43.154873"
   height="42.757084"
   viewBox="0 0 43.154873 42.757084"
   version="1.1"
   xml:space="preserve"
   style="clip-rule:evenodd;fill-rule:evenodd;stroke-linejoin:round;stroke-miterlimit:1.41420996"
   id="svg94"
   sodipodi:docname="akademia_wtyczka_GIS_Support.svg"
   inkscape:version="0.92.3 (2405546, 2018-03-11)"><metadata
   id="metadata100"><rdf:RDF><cc:Work
       rdf:about=""><dc:format>image/svg+xml</dc:format><dc:type
         rdf:resource="http://purl.org/dc/dcmitype/StillImage" /><dc:title></dc:title></cc:Work></rdf:RDF></metadata><defs
   id="defs98" /><sodipodi:namedview
   pagecolor="#ffffff"
   bordercolor="#666666"
   borderopacity="1"
   objecttolerance="10"
   gridtolerance="10"
   guidetolerance="10"
   inkscape:pageopacity="0"
   inkscape:pageshadow="2"
   inkscape:window-width="1366"
   inkscape:window-height="706"
   id="namedview96"
   showgrid="false"
   inkscape:zoom="4.0021282"
   inkscape:cx="64.885234"
   inkscape:cy="41.406633"
   inkscape:window-x="-8"
   inkscape:window-y="-8"
   inkscape:window-maximized="1"
   inkscape:current-layer="layer1"
   units="px" />
    <g
   inkscape:groupmode="layer"
   id="layer1"
   inkscape:label="tlo"
   transform="translate(-6.7510431,-0.16018602)"><rect
     style="clip-rule:evenodd;fill:#019edb;fill-opacity:1;fill-rule:evenodd;stroke:#019edb;stroke-width:0.88137299;stroke-linejoin:round;stroke-miterlimit:1.41420996;stroke-opacity:1"
     id="rect4638"
     width="42.273499"
     height="41.87571"
     x="7.1917295"
     y="0.60087252"
     inkscape:export-filename="C:\Users\Dell\Pictures\ikona_szkolenia.png"
     inkscape:export-xdpi="300"
     inkscape:export-ydpi="300" /></g><g
   transform="matrix(0.849394,0,0,0.849394,2.7328969,3.077854)"
   id="g4"
   style="fill:#ffffff">
        <path
   d="m 22.392,2.014 c 10.745,0 19.487,8.74 19.487,19.485 0,10.745 -8.742,19.487 -19.487,19.487 -10.746,0 -19.488,-8.742 -19.488,-19.487 0,-10.745 8.742,-19.485 19.488,-19.485 m 0,-1.905 C 10.58,0.109 1,9.689 1,21.499 c 0,11.822 9.58,21.392 21.392,21.392 11.812,0 21.392,-9.569 21.392,-21.392 0,-11.81 -9.581,-21.39 -21.392,-21.39 z"
   style="fill:#ffffff;fill-rule:nonzero"
   id="path2"
   inkscape:connector-curvature="0" />
    </g>
    <g
   transform="matrix(0.0361888,0,0,0.0350099,12.488157,12.377314)"
   id="g16"
   style="fill:#ffffff">
        <path
   d="M 466.75,242.763 V 86.25 c 0,-2.346 -0.643,-4.493 -1.6,-6.469 0.577,-1.599 1.6,-3.01 1.6,-4.781 0,-6.694 -4.438,-12.583 -10.884,-14.429 l -210,-60 c -2.695,-0.762 -5.537,-0.762 -8.232,0 l -210,60 C 21.188,62.417 16.75,68.306 16.75,75 c 0,6.694 4.438,12.583 10.884,14.429 l 79.116,22.604 v 17.752 c 0,17.065 9.478,32.754 24.141,39.961 67.236,33.047 154.453,33.032 221.719,0.015 14.663,-7.207 24.141,-22.896 24.141,-39.976 v -17.752 l 60,-17.142 v 147.872 c -17.422,6.213 -30,22.707 -30,42.237 v 30 c 0,8.291 6.709,15 15,15 h 60 c 8.291,0 15,-6.709 15,-15 V 285 C 496.75,265.47 484.172,248.977 466.75,242.763 Z"
   style="fill:#ffffff;fill-rule:nonzero"
   id="path6"
   inkscape:connector-curvature="0" />
        <path
   d="M 364.322,198.685 C 326.617,217.215 283.712,227 240.25,227 c -43.462,0 -86.382,-9.8 -124.102,-28.33 -3.684,-1.811 -6.735,-4.495 -10.009,-6.887 3.204,53.99 32.252,99.803 73.304,123.274 0,0 21.057,9.949 27.636,11.818 l 0.026,-0.049 c 10.655,3.038 21.625,5.175 33.144,5.175 10.547,0 25.57,-2.105 40.582,-7.648 6.915,-2.462 20.176,-9.265 20.176,-9.265 41.077,-23.463 70.145,-69.29 73.353,-123.299 -3.283,2.396 -6.343,5.081 -10.038,6.896 z"
   style="fill:#ffffff;fill-rule:nonzero"
   id="path8"
   inkscape:connector-curvature="0" />
        <path
   d="m 240.25,362 c -12.092,0 -23.729,-1.866 -35.068,-4.603 L 240.25,410 275.121,357.447 C 263.841,360.152 252.273,362 240.25,362 Z"
   style="fill:#ffffff;fill-rule:nonzero"
   id="path10"
   inkscape:connector-curvature="0" />
        <path
   d="m 326.595,335.096 c -0.266,0.179 -0.564,0.302 -0.829,0.48 L 313.15,354.5 c 0,0.698 -57.513,86.718 -57.9,87.299 V 512 h 195 c 8.291,0 15,-6.709 15,-15 0,-81.914 -60.289,-149.154 -138.655,-161.904 z"
   style="fill:#ffffff;fill-rule:nonzero"
   id="path12"
   inkscape:connector-curvature="0" />
        <path
   d="m 154.461,335.402 c -0.244,-0.163 -0.516,-0.276 -0.76,-0.441 C 75.418,347.798 15.25,415.137 15.25,497 c 0,8.291 6.709,15 15,15 h 195 V 441.799 C 157.271,339.655 171.143,360.508 154.461,335.402 Z"
   style="fill:#ffffff;fill-rule:nonzero"
   id="path14"
   inkscape:connector-curvature="0" />
    </g>
    
    
</svg>