<?xml version="1.0" encoding="UTF-8"?>
<svg id="Warstwa_1" data-name="Warstwa 1" xmlns="http://www.w3.org/2000/svg" viewBox="0 0 553.84 163.4">
  <defs>
    <style>
      .cls-1 {
        fill: #4e5ff8;
      }
    </style>
  </defs>
  <g>
    <path class="cls-1" d="M219.15,59.37h8.35v43.46h-8.35v-5.45h-.17c-2.3,3.32-6.82,6.65-14.31,6.65-8.01,0-14.49-4.6-14.49-14.57v-30.08h8.35v27.78c0,5.88,2.56,9.8,8.86,9.8,7.16,0,11.76-4.35,11.76-10.91v-26.67Z"/>
    <path class="cls-1" d="M233.98,88.34h8.43c.34,5.03,3.41,8.95,11.51,8.95,7.33,0,9.29-3.24,9.29-6.39,0-5.45-5.79-6.05-11.42-7.24-7.58-1.79-16.28-4-16.28-13.04,0-7.5,6.05-12.53,16.53-12.53,11.93,0,17.64,6.39,18.24,13.89h-8.44c-.6-3.32-2.39-7.16-9.63-7.16-5.62,0-8.01,2.22-8.01,5.45,0,4.52,4.86,4.94,10.99,6.31,8.01,1.87,16.7,4.18,16.7,13.89,0,8.43-6.47,13.55-17.89,13.55-13.21,0-19.77-6.82-20.02-15.68Z"/>
    <path class="cls-1" d="M318.25,83.32h-33.4c.17,7.24,4.43,13.98,13.04,13.98,7.67,0,10.65-4.94,11.42-7.84h8.52c-2.3,8.35-8.69,14.66-20.11,14.66-13.8,0-21.47-9.8-21.47-23.09s8.18-23.01,21.47-23.01,20.62,8.69,20.62,22.16c0,1.19,0,2.47-.08,3.15ZM309.64,76.76c0-6.82-4.77-11.93-12.19-11.93-6.99,0-12.1,4.77-12.61,11.93h24.8Z"/>
    <path class="cls-1" d="M385.9,72.66v30.17h-8.35v-27.86c0-5.79-1.19-9.72-7.58-9.72s-10.14,4.35-10.14,10.91v26.67h-8.35v-27.86c0-5.79-1.19-9.72-7.58-9.72s-10.14,4.35-10.14,10.91v26.67h-8.35v-43.46h8.35v5.45h.17c2.3-3.32,6.3-6.73,12.86-6.73,6.05,0,9.8,2.73,11.51,7.58h.17c3.15-4.18,7.58-7.58,14.23-7.58,8.78,0,13.21,5.28,13.21,14.57Z"/>
    <path class="cls-1" d="M392.8,91.58c0-9.71,7.33-12.61,18.15-14.66,6.82-1.28,10.99-2.13,10.99-6.39,0-3.15-1.87-5.79-8.27-5.79-7.58,0-9.88,2.39-10.31,8.18h-8.52c.43-8.35,5.88-14.91,19.17-14.91,8.95,0,16.11,3.75,16.11,15v19.94c0,3.15.43,4.77,2.04,4.77.26,0,.51,0,1.02-.09v5.12c-1.45.34-2.9.51-4.26.51-4.18,0-6.39-1.62-6.9-6.56h-.17c-2.81,4.52-7.75,7.33-14.83,7.33-8.69,0-14.23-5.03-14.23-12.44ZM421.94,85.87v-6.22c-1.36,1.28-5.11,2.22-9.55,3.15-7.67,1.53-10.91,3.66-10.91,8.18,0,4.09,2.22,6.31,7.41,6.31,7.5,0,13.04-3.84,13.04-11.42Z"/>
    <path class="cls-1" d="M481.67,81.1c0,14.32-8.43,22.93-19.51,22.93-6.82,0-10.99-3.07-13.38-6.56h-.17v20.45h-8.35v-58.54h8.35v5.11h.17c2.39-3.07,6.56-6.39,13.38-6.39,11.08,0,19.51,8.69,19.51,23.01ZM472.89,81.1c0-8.52-3.92-16.02-12.1-16.02-7.5,0-12.1,6.14-12.1,16.02s4.6,16.02,12.1,16.02c8.18,0,12.1-7.5,12.1-16.02Z"/>
    <path class="cls-1" d="M485.92,88.34h8.43c.34,5.03,3.41,8.95,11.51,8.95,7.33,0,9.29-3.24,9.29-6.39,0-5.45-5.79-6.05-11.42-7.24-7.58-1.79-16.28-4-16.28-13.04,0-7.5,6.05-12.53,16.53-12.53,11.93,0,17.64,6.39,18.24,13.89h-8.44c-.6-3.32-2.39-7.16-9.63-7.16-5.62,0-8.01,2.22-8.01,5.45,0,4.52,4.86,4.94,10.99,6.31,8.01,1.87,16.7,4.18,16.7,13.89,0,8.43-6.47,13.55-17.89,13.55-13.21,0-19.77-6.82-20.02-15.68Z"/>
  </g>
  <path class="cls-1" d="M154.89,65.55c0-1.62-.86-3.11-2.26-3.92l-6.03-3.48h0l-14.63-8.45-5.23-3.02-24.19-13.97c-6.24-3.6-13.93-3.6-20.17,0l-50.02,28.88c-1.39.8-2.25,2.29-2.26,3.89l-.07,14.35h0s0,0,0,0v17.92c0,1.61.86,3.1,2.25,3.91l50.04,29.01c6.26,3.63,13.97,3.63,20.23,0l50.09-29.02c1.4-.81,2.26-2.3,2.26-3.91v-17.91h0s0,0,0,0v-14.28ZM136.23,94.32l-5.76,3.33-10.46,6.05-2.42,1.4-.57.33-3.06,1.76-15.86,9.13c-3.69,2.13-8.23,2.12-11.92,0l-18.39-10.62-5.57-3.21,9.14-5.28,5.57,3.21,9.26,5.34c3.69,2.13,8.23,2.13,11.92,0l15.86-9.13,3.06-1.76.57-.33,2.42-1.4,1.32-.76,8.23-4.76,9.13,5.27-2.47,1.43h0ZM136.23,73.21h0s-6.66,3.85-6.66,3.85l-9.57,5.53-2.42,1.4-.57.33-3.06,1.76-15.86,9.13c-3.69,2.13-8.23,2.12-11.92,0l-14.81-8.55-9.14-5.28,2.39-1.38,12.76-7.37,11.81,6.82c1.83,1.05,4.08,1.06,5.9,0l21.01-12.1,5.88-3.39,1.59-.92,15.14,8.74-2.47,1.43Z"/>
</svg>