<svg width="24" height="24" viewBox="0 0 24 24" fill="none" xmlns="http://www.w3.org/2000/svg">
<path d="M3 0H21C22.6569 0 24 1.34315 24 3V21C24 22.6569 22.6569 24 21 24H3C1.34315 24 0 22.6569 0 21V3C0 1.34315 1.34315 0 3 0Z" fill="#019EDB"/>
<path d="M2.57764 14.5334L1.36664 9.46338H2.41464L3.17864 12.9464L4.10564 9.46338H5.32364L6.21264 13.0044L6.99064 9.46338H8.02064L6.78964 14.5334H5.70364L4.69364 10.7424L3.68764 14.5334H2.57764Z" fill="white"/>
<path d="M8.52966 14.5334V9.46338H10.0617L10.9817 12.9214L11.8907 9.46338H13.4267V14.5334H12.4757V10.5424L11.4687 14.5334H10.4837L9.48066 10.5424V14.5334H8.52966Z" fill="white"/>
<path d="M15.5846 14.5334V10.3214H14.0806V9.46338H18.1096V10.3214H16.6086V14.5334H15.5846Z" fill="white"/>
<path d="M18.5106 12.8833L19.5066 12.7863C19.5666 13.1213 19.6886 13.3663 19.8716 13.5233C20.0546 13.6803 20.3016 13.7583 20.6136 13.7583C20.9426 13.7583 21.1916 13.6893 21.3586 13.5493C21.5256 13.4103 21.6096 13.2463 21.6096 13.0603C21.6096 12.9403 21.5746 12.8383 21.5036 12.7543C21.4336 12.6693 21.3106 12.5963 21.1356 12.5343C21.0156 12.4923 20.7426 12.4193 20.3156 12.3133C19.7676 12.1773 19.3826 12.0093 19.1606 11.8113C18.8496 11.5323 18.6936 11.1923 18.6936 10.7913C18.6936 10.5333 18.7666 10.2913 18.9136 10.0663C19.0596 9.84234 19.2706 9.67034 19.5466 9.55334C19.8216 9.43534 20.1546 9.37634 20.5446 9.37634C21.1806 9.37634 21.6596 9.51634 21.9816 9.79534C22.3026 10.0743 22.4716 10.4463 22.4876 10.9123L21.4646 10.9573C21.4206 10.6963 21.3266 10.5093 21.1826 10.3953C21.0386 10.2813 20.8216 10.2243 20.5336 10.2243C20.2366 10.2243 20.0036 10.2853 19.8356 10.4073C19.7266 10.4853 19.6726 10.5903 19.6726 10.7223C19.6726 10.8423 19.7236 10.9443 19.8246 11.0303C19.9536 11.1383 20.2676 11.2513 20.7656 11.3683C21.2636 11.4863 21.6316 11.6083 21.8706 11.7333C22.1096 11.8593 22.2956 12.0313 22.4306 12.2493C22.5656 12.4673 22.6336 12.7363 22.6336 13.0563C22.6336 13.3473 22.5526 13.6193 22.3906 13.8723C22.2296 14.1263 22.0016 14.3153 21.7066 14.4383C21.4116 14.5613 21.0436 14.6233 20.6026 14.6233C19.9616 14.6233 19.4696 14.4753 19.1266 14.1793C18.7826 13.8823 18.5776 13.4503 18.5106 12.8833Z" fill="white"/>
</svg>