<?xml version="1.0" encoding="UTF-8" standalone="no"?>
<!DOCTYPE svg PUBLIC "-//W3C//DTD SVG 1.1//EN" "http://www.w3.org/Graphics/SVG/1.1/DTD/svg11.dtd">
<svg width="100%" height="100%" viewBox="0 0 24 24" version="1.1" xmlns="http://www.w3.org/2000/svg" xmlns:xlink="http://www.w3.org/1999/xlink" xml:space="preserve" xmlns:serif="http://www.serif.com/" style="fill-rule:evenodd;clip-rule:evenodd;stroke-linejoin:round;stroke-miterlimit:1.41421;">
    <rect id="Layer1" x="0" y="0" width="24" height="24" style="fill:rgb(1,158,219);"/>
    <g transform="matrix(1,0,0,1,1.34264,14.5333)">
        <path d="M1.235,0L0.024,-5.07L1.072,-5.07L1.836,-1.587L2.763,-5.07L3.981,-5.07L4.87,-1.529L5.648,-5.07L6.678,-5.07L5.447,0L4.361,0L3.351,-3.791L2.345,0L1.235,0Z" style="fill:white;fill-rule:nonzero;"/>
        <path d="M7.187,0L7.187,-5.07L8.719,-5.07L9.639,-1.612L10.548,-5.07L12.084,-5.07L12.084,0L11.133,0L11.133,-3.991L10.126,0L9.141,0L8.138,-3.991L8.138,0L7.187,0Z" style="fill:white;fill-rule:nonzero;"/>
        <path d="M14.242,0L14.242,-4.212L12.738,-4.212L12.738,-5.07L16.767,-5.07L16.767,-4.212L15.266,-4.212L15.266,0L14.242,0Z" style="fill:white;fill-rule:nonzero;"/>
        <path d="M17.168,-1.65L18.164,-1.747C18.224,-1.412 18.346,-1.167 18.529,-1.01C18.712,-0.853 18.959,-0.775 19.271,-0.775C19.6,-0.775 19.849,-0.844 20.016,-0.984C20.183,-1.123 20.267,-1.287 20.267,-1.473C20.267,-1.593 20.232,-1.695 20.161,-1.779C20.091,-1.864 19.968,-1.937 19.793,-1.999C19.673,-2.041 19.4,-2.114 18.973,-2.22C18.425,-2.356 18.04,-2.524 17.818,-2.722C17.507,-3.001 17.351,-3.341 17.351,-3.742C17.351,-4 17.424,-4.242 17.571,-4.467C17.717,-4.691 17.928,-4.863 18.204,-4.98C18.479,-5.098 18.812,-5.157 19.202,-5.157C19.838,-5.157 20.317,-5.017 20.639,-4.738C20.96,-4.459 21.129,-4.087 21.145,-3.621L20.122,-3.576C20.078,-3.837 19.984,-4.024 19.84,-4.138C19.696,-4.252 19.479,-4.309 19.191,-4.309C18.894,-4.309 18.661,-4.248 18.493,-4.126C18.384,-4.048 18.33,-3.943 18.33,-3.811C18.33,-3.691 18.381,-3.589 18.482,-3.503C18.611,-3.395 18.925,-3.282 19.423,-3.165C19.921,-3.047 20.289,-2.925 20.528,-2.8C20.767,-2.674 20.953,-2.502 21.088,-2.284C21.223,-2.066 21.291,-1.797 21.291,-1.477C21.291,-1.186 21.21,-0.914 21.048,-0.661C20.887,-0.407 20.659,-0.218 20.364,-0.095C20.069,0.028 19.701,0.09 19.26,0.09C18.619,0.09 18.127,-0.058 17.784,-0.354C17.44,-0.651 17.235,-1.083 17.168,-1.65Z" style="fill:white;fill-rule:nonzero;"/>
    </g>
</svg>
