<svg width="24" height="24" viewBox="0 0 24 24" fill="none" xmlns="http://www.w3.org/2000/svg">
<g clip-path="url(#clip0_47907_51)">
<rect width="24" height="24" rx="3" fill="white"/>
<path d="M4.5 10.5L11.5 6L20 10.5V13.5L12 19L4 15L4.5 10.5Z" fill="white"/>
<path d="M20.8103 9.59142C20.8103 9.35313 20.6838 9.13395 20.4779 9.01481L19.5909 8.50291L17.4389 7.25996L16.6696 6.81573L13.1113 4.76081C12.1935 4.23126 11.0623 4.23126 10.1444 4.76081L2.7867 9.00892C2.58224 9.1266 2.45574 9.34577 2.45427 9.58112L2.44397 11.6919V14.3279C2.44397 14.5647 2.57047 14.7839 2.77493 14.903L10.1356 19.1703C11.0564 19.7042 12.1905 19.7042 13.1113 19.1703L20.4793 14.9016C20.6853 14.7824 20.8118 14.5632 20.8118 14.3264V11.6919V9.59142H20.8103ZM18.0655 13.8234L17.2182 14.3132L15.6796 15.2031L15.3236 15.409L15.2398 15.4576L14.7897 15.7165L12.4568 17.0595C11.914 17.3728 11.2462 17.3713 10.7034 17.0595L7.99829 15.4973L7.17897 15.0251L8.52342 14.2485L9.34275 14.7206L10.7048 15.5061C11.2476 15.8194 11.9154 15.8194 12.4582 15.5061L14.7912 14.1631L15.2413 13.9043L15.3251 13.8557L15.6811 13.6498L15.8753 13.538L17.0858 12.8378L18.4288 13.613L18.0655 13.8234ZM18.0655 10.7182L17.0858 11.2845L15.6781 12.0979L15.3222 12.3039L15.2383 12.3524L14.7882 12.6113L12.4553 13.9543C11.9125 14.2676 11.2447 14.2661 10.7019 13.9543L8.52342 12.6966L7.17897 11.9199L7.53053 11.7169L9.40747 10.6329L11.1447 11.636C11.4138 11.7905 11.7448 11.792 12.0125 11.636L15.103 9.85619L15.9679 9.35754L16.2018 9.22221L18.4288 10.5078L18.0655 10.7182Z" fill="#4E5FF8"/>
<rect width="35" height="5.02467" transform="translate(8.55298 -8) rotate(45)" fill="#E02424"/>
<path d="M15.4175 4.5388L17.4745 2.48176L17.9717 2.97895L16.3184 4.63221L17.1742 5.48797L16.7704 5.89174L15.4175 4.5388ZM17.0278 6.14912L18.5706 4.60635L19.0617 5.0975L17.519 6.64028L17.0278 6.14912ZM18.9964 4.67264C18.9275 4.60367 18.891 4.52164 18.887 4.42656C18.8836 4.3308 18.9144 4.25045 18.9794 4.1855C19.0436 4.12121 19.1233 4.09108 19.2184 4.0951C19.3142 4.09845 19.3965 4.13461 19.4655 4.20358C19.5351 4.27321 19.5713 4.35558 19.574 4.45066C19.578 4.54575 19.5479 4.62543 19.4836 4.68971C19.4186 4.75466 19.3383 4.78547 19.2425 4.78212C19.1481 4.77877 19.0661 4.74228 18.9964 4.67264ZM20.2452 6.28095L19.8836 6.64254L18.9103 5.66927L19.2719 5.30768L20.2452 6.28095ZM19.8454 5.14195L20.3366 5.63311L18.9093 7.06038C18.8792 7.09051 18.8594 7.11964 18.85 7.14776C18.842 7.17588 18.8434 7.20334 18.8541 7.23012C18.8654 7.25624 18.8842 7.28235 18.9103 7.30847C18.9291 7.32722 18.9505 7.3453 18.9746 7.36271C19 7.38012 19.0195 7.39284 19.0329 7.40087L18.7526 7.82976C18.7225 7.81302 18.681 7.78824 18.6281 7.75543C18.5758 7.72329 18.5189 7.6791 18.4573 7.62285C18.3368 7.51303 18.2514 7.40087 18.2012 7.28637C18.1523 7.17187 18.1406 7.05837 18.166 6.94587C18.1922 6.83405 18.2581 6.72658 18.3639 6.62346L19.8454 5.14195ZM19.6285 8.80806C19.4671 8.64668 19.3596 8.4756 19.3061 8.2948C19.2538 8.11401 19.2555 7.93288 19.3111 7.75141C19.368 7.56995 19.4785 7.39719 19.6425 7.23314C19.8019 7.07377 19.9726 6.96596 20.1548 6.90972C20.3376 6.8528 20.5194 6.84845 20.7002 6.89666C20.8816 6.9442 21.05 7.04565 21.2054 7.201C21.3152 7.31081 21.3986 7.42833 21.4555 7.55354C21.5124 7.67876 21.5405 7.808 21.5399 7.94125C21.5392 8.0745 21.5081 8.20876 21.4465 8.34402C21.3855 8.47861 21.2918 8.60918 21.1652 8.73574L21.0427 8.85828L19.7018 7.51739L19.987 7.23213L20.8709 8.11602C20.9225 8.06312 20.9566 8.00419 20.9734 7.93924C20.9901 7.87429 20.9888 7.80933 20.9694 7.74438C20.9513 7.67943 20.9151 7.61984 20.8609 7.5656C20.806 7.51069 20.7444 7.47386 20.6761 7.45511C20.6084 7.43569 20.5408 7.43435 20.4732 7.45109C20.4062 7.46716 20.3456 7.50098 20.2914 7.55254L20.0011 7.84282C19.9382 7.90576 19.8953 7.97339 19.8725 8.04571C19.8504 8.11735 19.8491 8.189 19.8685 8.26065C19.8879 8.3323 19.9291 8.39959 19.9921 8.46254C20.0356 8.50606 20.0811 8.53954 20.1287 8.56298C20.1762 8.58642 20.2244 8.59914 20.2733 8.60115C20.3222 8.60316 20.3701 8.59345 20.4169 8.57202L20.8549 9.03606C20.735 9.11842 20.6058 9.16529 20.4672 9.17668C20.3299 9.18806 20.1893 9.16328 20.0453 9.10235C19.902 9.04075 19.7631 8.94265 19.6285 8.80806Z" fill="white"/>
</g>
<defs>
<clipPath id="clip0_47907_51">
<rect width="24" height="24" rx="3" fill="white"/>
</clipPath>
</defs>
</svg>
